<?xml version="1.0" encoding="utf-8"?>
<!-- Generator: Adobe Illustrator 26.3.0, SVG Export Plug-In . SVG Version: 6.00 Build 0)  -->
<svg version="1.1" id="Layer_1" xmlns="http://www.w3.org/2000/svg" xmlns:xlink="http://www.w3.org/1999/xlink" x="0px" y="0px"
	 viewBox="0 0 1200 1200" style="enable-background:new 0 0 1200 1200;" xml:space="preserve">
<style type="text/css">
	.st0{fill:url(#SVGID_1_);}
</style>
<linearGradient id="SVGID_1_" gradientUnits="userSpaceOnUse" x1="862.0221" y1="835.5324" x2="270.4503" y2="243.9606">
	<stop  offset="0.3478" style="stop-color:#FF0079"/>
	<stop  offset="0.6175" style="stop-color:#5D21FB"/>
	<stop  offset="0.9733" style="stop-color:#4C29B5"/>
</linearGradient>
<path class="st0" d="M734.48,765.59l-92.04,57.25c-4.15,2.58-9.52-0.4-9.52-5.29V625.07c0-2.22,1.18-4.28,3.11-5.39l226.42-131.16
	c1.92-1.11,3.11-3.17,3.11-5.39v-27.61c0-2.22-1.18-4.28-3.1-5.39L611.73,304.63c-7.25-4.21-16.21-4.21-23.46,0L337.56,450.12
	c-1.92,1.12-3.11,3.17-3.11,5.39v27.61c0,2.22,1.19,4.28,3.11,5.39l226.42,131.16c1.92,1.11,3.11,3.17,3.11,5.39v192.48
	c0,4.89-5.37,7.88-9.53,5.29l-92.04-57.25c-4.15-2.58-9.52,0.4-9.52,5.29v42.17c0,2.12,1.08,4.1,2.87,5.25l111.7,71.6
	c17.94,11.5,40.93,11.5,58.87,0l111.7-71.6c1.79-1.15,2.87-3.12,2.87-5.25v-42.17C744,765.99,738.63,763.01,734.48,765.59z
	 M488,498.37c-1.94,1.09-4.31,1.07-6.23-0.05l-41.32-24.29c-4.1-2.41-4.1-8.33-0.01-10.74l146.8-86.53c7.87-4.64,17.63-4.64,25.5,0
	l146.8,86.53c4.09,2.41,4.09,8.34-0.01,10.74l-41.32,24.29c-1.92,1.13-4.29,1.15-6.23,0.05l-108.93-61.55
	c-1.9-1.08-4.23-1.08-6.13,0L488,498.37z M559.09,530.99l37.58-23.76c2.04-1.29,4.63-1.29,6.66,0l37.58,23.76
	c3.87,2.45,3.87,8.09,0,10.54l-37.58,23.77c-2.04,1.29-4.63,1.29-6.66,0l-37.58-23.77C555.22,539.08,555.22,533.43,559.09,530.99z"
	/>
</svg>
