<svg width="193" height="209" viewBox="0 0 193 209" fill="none" xmlns="http://www.w3.org/2000/svg">
<path d="M23.1153 154.378V131.38C23.1153 129.708 24.9689 128.676 26.4554 129.512L29.5018 131.202C29.4468 131.807 29.4101 132.429 29.4101 133.052C29.4101 145.805 40.0909 156.157 53.2492 156.157C66.4075 156.157 77.0884 145.805 77.0884 133.052C77.0884 120.299 66.4075 109.947 53.2492 109.947C50.1661 109.947 47.2114 110.516 44.5137 111.565L4.1945 89.7941C2.708 88.9937 0.872805 90.0253 0.872805 91.6795C0.854453 104.326 0.817749 145.734 0.817749 153.204C0.817749 153.933 1.20314 154.609 1.82711 155.001L19.5734 166.331C21.0416 167.274 23.0236 166.26 23.0236 164.552L23.1153 154.36V154.378ZM53.2676 122.273C59.4155 122.273 64.3888 127.093 64.3888 133.052C64.3888 139.01 59.4155 143.831 53.2676 143.831C47.1197 143.831 42.1463 139.01 42.1463 133.052C42.1463 127.093 47.1197 122.273 53.2676 122.273Z" fill="black"/>
<path d="M145.256 161.956L112.296 181.824C110.81 182.713 108.883 181.682 108.883 179.992V113.202C108.883 112.437 109.305 111.726 110.002 111.335L191.063 65.8181C191.76 65.4268 192.182 64.7153 192.182 63.9505V54.3633C192.182 53.5985 191.76 52.887 191.063 52.4957L101.322 2.01669C98.7158 0.558168 95.5226 0.558168 92.9166 2.01669L3.15731 52.4957C2.47829 52.887 2.03784 53.5985 2.03784 54.3633V63.9505C2.03784 64.7153 2.45994 65.4268 3.15731 65.8181L84.2178 111.335C84.9151 111.726 85.3372 112.437 85.3372 113.202V179.992C85.3372 181.682 83.4103 182.731 81.9238 181.824L48.9637 161.956C47.4772 161.067 45.5503 162.098 45.5503 163.788V178.427C45.5503 179.156 45.9357 179.849 46.578 180.241L86.5668 205.089C92.99 209.073 101.212 209.073 107.635 205.089L147.624 180.241C148.266 179.849 148.651 179.156 148.651 178.427V163.788C148.651 162.098 146.724 161.049 145.238 161.956H145.256ZM57.0202 69.2331C56.3228 69.6067 55.4787 69.6067 54.7996 69.2154L40.008 60.7844C38.5398 59.9484 38.5398 57.8851 40.008 57.0492L92.5679 27.025C95.3758 25.4242 98.881 25.4242 101.689 27.025L154.249 57.0492C155.717 57.8851 155.717 59.9484 154.249 60.7844L139.457 69.2154C138.778 69.6067 137.916 69.6067 137.236 69.2331L98.2387 47.8712C97.5596 47.4976 96.7154 47.4976 96.0364 47.8712L57.0386 69.2331H57.0202ZM82.4743 80.5456L95.9263 72.3103C96.6604 71.8656 97.578 71.8656 98.3121 72.3103L111.764 80.5456C113.14 81.3993 113.14 83.3559 111.764 84.2097L98.3121 92.4628C97.578 92.9074 96.6604 92.9074 95.9263 92.4628L82.4743 84.2097C81.098 83.3559 81.098 81.3993 82.4743 80.5456Z" fill="black"/>
</svg>
