<?xml version="1.0" encoding="utf-8"?>
<!-- Generator: Adobe Illustrator 26.3.0, SVG Export Plug-In . SVG Version: 6.00 Build 0)  -->
<svg version="1.1" id="Layer_1" xmlns="http://www.w3.org/2000/svg" xmlns:xlink="http://www.w3.org/1999/xlink" x="0px" y="0px"
	 viewBox="0 0 1200 1200" style="enable-background:new 0 0 1200 1200;" xml:space="preserve">
<style type="text/css">
	.st0{fill:#4C29B5;}
	.st1{fill:url(#SVGID_1_);}
	.st2{fill:url(#SVGID_00000099625699881743475640000017096507967549106838_);}
	.st3{fill:url(#SVGID_00000183951889456865324830000013872039900421926569_);}
</style>
<g>
	<g>
		<path class="st0" d="M324.73,975.79H249.4v22.07h42.08c-2.6,7.12-7.46,12.82-14.57,17.09c-7.12,4.28-15.12,6.42-24.02,6.42
			c-11.77,0-21.62-3.68-29.56-11.04c-7.8-7.48-11.7-16.64-11.7-27.5c0-10.85,4.11-19.96,12.32-27.32
			c8.21-7.35,18.47-11.03,30.79-11.03c8.07,0,15.46,1.69,22.17,5.07c6.7,3.38,11.83,8.02,15.4,13.93l28.33-9.23
			c-5.89-10.61-14.78-19.05-26.69-25.33c-11.77-6.15-24.84-9.23-39.21-9.23c-20.94,0-38.46,6.03-52.55,18.09
			c-14.1,12.06-21.14,27.13-21.14,45.22c0,17.85,6.91,32.86,20.73,45.04c13.82,12.06,31,18.09,51.52,18.09
			c20.39,0,37.49-6.09,51.32-18.27c13.55-11.94,20.46-27.13,20.73-45.59c0-0.48-0.1-1.54-0.31-3.16S324.73,976.4,324.73,975.79z"/>
		<polygon class="st0" points="367.84,996.42 430.24,996.42 430.24,972.72 367.84,972.72 367.84,947.93 441.33,947.93 
			441.33,924.06 338.48,924.06 338.48,1046.16 442.35,1046.16 442.35,1022.47 367.84,1022.47 		"/>
		<polygon class="st0" points="549.5,1001.84 480.53,924.06 454.46,924.06 454.46,1046.16 482.58,1046.16 482.58,968.38 
			551.76,1046.16 577.62,1046.16 577.62,924.06 549.5,924.06 		"/>
		<path class="st0" d="M685.39,994.6c0,7.96-3.01,14.59-9.03,19.9c-6.02,5.31-13.62,7.96-22.79,7.96c-9.03,0-16.56-2.65-22.58-7.96
			c-6.02-5.31-9.03-11.94-9.03-19.9v-72.72h-29.35v72.72c0,14.59,5.82,26.84,17.45,36.72c11.63,9.89,26.14,14.83,43.52,14.83
			c17.38,0,31.88-4.94,43.52-14.83c11.77-10.01,17.65-22.25,17.65-36.72v-72.72h-29.35V994.6z"/>
		<rect x="729.73" y="924.06" class="st0" width="29.35" height="122.11"/>
		<polygon class="st0" points="803.63,1001.84 803.63,924.06 775.51,924.06 775.51,1046.16 801.37,1046.16 870.55,968.38 
			870.55,1046.16 898.67,1046.16 898.67,924.06 872.6,924.06 		"/>
		<polygon class="st0" points="944.45,1022.47 944.45,996.42 1006.85,996.42 1006.85,972.72 944.45,972.72 944.45,947.93 
			1017.93,947.93 1017.93,924.06 915.09,924.06 915.09,1046.16 1018.96,1046.16 1018.96,1022.47 		"/>
	</g>
	<g>
		<g>
			<linearGradient id="SVGID_1_" gradientUnits="userSpaceOnUse" x1="712.9512" y1="846.6573" x2="126.1212" y2="263.6627">
				<stop  offset="0.3521" style="stop-color:#FF0079"/>
				<stop  offset="0.5823" style="stop-color:#5D21FB"/>
				<stop  offset="0.9733" style="stop-color:#4C29B5"/>
			</linearGradient>
			<path class="st1" d="M394.87,625.52v-70.71c0-5.11,5.53-8.31,9.96-5.76l9.08,5.22c-0.15,1.89-0.25,3.79-0.25,5.71
				c0,39.23,31.8,71.02,71.02,71.02s71.02-31.8,71.02-71.02s-31.8-71.02-71.02-71.02c-9.2,0-17.98,1.77-26.05,4.95l-120.15-66.89
				c-4.43-2.47-9.88,0.72-9.88,5.79c-0.03,38.91-0.14,166.17-0.16,189.14c0,2.24,1.12,4.31,2.99,5.54l52.85,34.83
				c4.4,2.9,10.26-0.22,10.31-5.49L394.87,625.52z M484.69,526.84c18.3,0,33.13,14.83,33.13,33.13s-14.83,33.13-33.13,33.13
				s-33.13-14.83-33.13-33.13S466.39,526.84,484.69,526.84z"/>
			
				<linearGradient id="SVGID_00000125581842030058618800000017009511521115298950_" gradientUnits="userSpaceOnUse" x1="916.081" y1="642.1912" x2="329.2509" y2="59.1966">
				<stop  offset="0.3403" style="stop-color:#FF0079"/>
				<stop  offset="0.5582" style="stop-color:#5D21FB"/>
				<stop  offset="0.9733" style="stop-color:#4C29B5"/>
			</linearGradient>
			<path style="fill:url(#SVGID_00000125581842030058618800000017009511521115298950_);" d="M893.48,627.49
				c1.87-1.23,2.99-3.31,2.99-5.54c-0.02-22.97-0.12-150.23-0.16-189.14c0-5.07-5.45-8.26-9.88-5.79l-120.11,66.87
				c-8.06-3.17-16.82-4.93-26-4.93c-39.23,0-71.02,31.8-71.02,71.02S701.09,631,740.32,631c39.23,0,71.02-31.8,71.02-71.02
				c0-1.94-0.1-3.86-0.25-5.76l9-5.17c4.43-2.55,9.96,0.65,9.96,5.76v70.71l0.28,31.31c0.05,5.27,5.91,8.39,10.31,5.49
				L893.48,627.49z M740.32,593.1c-18.3,0-33.13-14.83-33.13-33.13s14.83-33.13,33.13-33.13c18.3,0,33.13,14.83,33.13,33.13
				S758.61,593.1,740.32,593.1z"/>
			
				<linearGradient id="SVGID_00000083088316952915553920000000133257357129309317_" gradientUnits="userSpaceOnUse" x1="864.1651" y1="694.4486" x2="277.3351" y2="111.454">
				<stop  offset="0.3478" style="stop-color:#FF0079"/>
				<stop  offset="0.6175" style="stop-color:#5D21FB"/>
				<stop  offset="0.9733" style="stop-color:#4C29B5"/>
			</linearGradient>
			<path style="fill:url(#SVGID_00000083088316952915553920000000133257357129309317_);" d="M755.88,648.82l-98.17,61.06
				c-4.43,2.75-10.16-0.43-10.16-5.64V498.95c0-2.37,1.26-4.56,3.32-5.75l241.47-139.88c2.05-1.19,3.32-3.38,3.32-5.75v-29.45
				c0-2.37-1.26-4.56-3.31-5.75L624.97,157.21c-7.74-4.49-17.29-4.49-25.02,0L332.57,312.37c-2.05,1.19-3.31,3.38-3.31,5.75v29.45
				c0,2.37,1.26,4.56,3.32,5.75L574.05,493.2c2.05,1.19,3.32,3.38,3.32,5.75v205.28c0,5.21-5.73,8.4-10.16,5.64l-98.16-61.06
				c-4.43-2.75-10.16,0.43-10.16,5.64v44.97c0,2.27,1.15,4.37,3.06,5.6l119.13,76.37c19.13,12.26,43.65,12.26,62.78,0l119.13-76.37
				c1.91-1.22,3.06-3.33,3.06-5.6v-44.97C766.04,649.25,760.31,646.06,755.88,648.82z M493.02,363.83c-2.07,1.17-4.6,1.15-6.64-0.06
				l-44.07-25.9c-4.37-2.57-4.37-8.88-0.01-11.46l156.56-92.29c8.39-4.95,18.8-4.95,27.19,0l156.56,92.29
				c4.37,2.57,4.36,8.89-0.01,11.46l-44.07,25.9c-2.04,1.2-4.57,1.22-6.64,0.06l-116.17-65.65c-2.03-1.15-4.51-1.15-6.54,0
				L493.02,363.83z M568.83,398.62l40.08-25.34c2.17-1.37,4.94-1.37,7.1,0l40.08,25.34c4.13,2.61,4.13,8.63,0,11.24l-40.08,25.35
				c-2.17,1.37-4.94,1.37-7.11,0l-40.08-25.35C564.7,407.25,564.7,401.23,568.83,398.62z"/>
		</g>
	</g>
	<g>
		<path class="st0" d="M503.11,828.48H475.2v-17.14h74.26v17.14h-27.91v70.49h-18.44V828.48z"/>
		<path class="st0" d="M596.54,898.97h-18.56v-87.63h18.56v34.79h40.12v-34.79h18.44v87.63h-18.44v-35.7h-40.12V898.97z"/>
		<path class="st0" d="M683.61,811.34h65.04v17.14h-46.48v17.78h39.47v17.01h-39.47v18.7h47.13v17.01h-65.69V811.34z"/>
	</g>
</g>
</svg>
