<svg width="100" height="103" viewBox="0 0 100 103" fill="none" xmlns="http://www.w3.org/2000/svg">
<path d="M29.2348 85.9477V55.794C29.2348 53.6019 31.6651 52.2493 33.6141 53.3454L37.6083 55.5608C37.5361 56.3537 37.488 57.17 37.488 57.9862C37.488 74.7071 51.4918 88.2798 68.744 88.2798C85.9961 88.2798 100 74.7071 100 57.9862C100 41.2653 85.9961 27.6926 68.744 27.6926C64.7016 27.6926 60.8277 28.4389 57.2907 29.8148L4.42733 1.27027C2.47834 0.220842 0.0721848 1.57344 0.0721848 3.74226C0.0481232 20.3233 0 74.6139 0 84.4086C0 85.3647 0.505294 86.2509 1.32339 86.7639L24.591 101.619C26.5159 102.855 29.1145 101.526 29.1145 99.2871L29.2348 85.9244V85.9477ZM68.768 43.8539C76.8287 43.8539 83.3494 50.1738 83.3494 57.9862C83.3494 65.7986 76.8287 72.1185 68.768 72.1185C60.7074 72.1185 54.1867 65.7986 54.1867 57.9862C54.1867 50.1738 60.7074 43.8539 68.768 43.8539Z" fill="url(#paint0_linear_1_57)"/>
<defs>
<linearGradient id="paint0_linear_1_57" x1="50" y1="0.907776" x2="50" y2="102.092" gradientUnits="userSpaceOnUse">
<stop/>
<stop offset="1" stop-color="#666666"/>
</linearGradient>
</defs>
</svg>
