<svg width="181" height="189" viewBox="0 0 181 189" fill="none" xmlns="http://www.w3.org/2000/svg">
<path d="M76.2441 147.142H73.8242V145.7H80.2609V147.142H77.841V153.067H76.2441V147.142Z" fill="black"/>
<path d="M89.0193 153.067H87.4102V145.706H89.0193V148.63H92.4998V145.706H94.0967V153.067H92.4998V150.066H89.0193V153.067Z" fill="black"/>
<path d="M101.242 145.7H106.886V147.142H102.851V148.636H106.277V150.066H102.851V151.637H106.941V153.067H101.242V145.7Z" fill="black"/>
<path d="M0.40625 175.838C0.40625 172.069 1.92398 168.926 4.95336 166.41C7.98273 163.899 11.7496 162.641 16.2541 162.641C19.3444 162.641 22.1544 163.279 24.6839 164.561C27.2439 165.866 29.1579 167.627 30.4257 169.842L24.3365 171.762C23.5685 170.533 22.4652 169.564 21.0267 168.861C19.5821 168.158 17.9973 167.804 16.2602 167.804C13.6087 167.804 11.4022 168.572 9.64066 170.102C7.87302 171.638 6.99529 173.534 6.99529 175.797C6.99529 178.06 7.83644 179.968 9.51266 181.527C11.2193 183.063 13.3405 183.825 15.8701 183.825C17.784 183.825 19.5029 183.376 21.0328 182.484C22.5627 181.592 23.605 180.405 24.1658 178.922H15.1143V174.32H31.3156C31.3156 174.444 31.34 174.68 31.3827 175.017C31.4253 175.354 31.4497 175.578 31.4497 175.679C31.3888 179.525 29.9076 182.691 26.994 185.178C24.0195 187.719 20.344 188.989 15.9554 188.989C11.5668 188.989 7.84864 187.73 4.87412 185.22C1.8996 182.679 0.418441 179.554 0.418441 175.832" fill="black"/>
<path d="M34.2656 163.096H56.3794V168.076H40.5743V173.239H53.9962V178.178H40.5743V183.607H56.5989V188.546H34.2656V163.096Z" fill="black"/>
<path d="M65.2519 188.546H59.1992V163.096H64.8069L79.6429 179.306V163.096H85.6895V188.546H80.1245L65.2519 172.335V188.546Z" fill="black"/>
<path d="M108.868 178.255V163.096H115.183V178.255C115.183 181.273 113.915 183.826 111.385 185.911C108.886 187.973 105.765 189.001 102.029 189.001C98.2926 189.001 95.1718 187.973 92.6727 185.911C90.1736 183.849 88.918 181.297 88.918 178.255V163.096H95.2327V178.255C95.2327 179.915 95.8788 181.297 97.1771 182.402C98.4693 183.507 100.091 184.062 102.035 184.062C103.98 184.062 105.637 183.507 106.936 182.402C108.228 181.297 108.88 179.915 108.88 178.255" fill="black"/>
<path d="M124.717 163.096H118.402V188.546H124.717V163.096Z" fill="black"/>
<path d="M148.684 172.335L133.811 188.546H128.246V163.096H134.293V179.306L149.129 163.096H154.736V188.546H148.684V172.335Z" fill="black"/>
<path d="M158.262 163.096H180.376V168.076H164.57V173.239H177.992V178.178H164.57V183.607H180.595V188.546H158.262V163.096Z" fill="black"/>
<path d="M44.3989 98.3155V83.5809C44.3989 82.5097 45.5864 81.8488 46.5388 82.3844L48.4906 83.467C48.4553 83.8544 48.4318 84.2533 48.4318 84.6521C48.4318 92.8228 55.2748 99.4551 63.705 99.4551C72.1353 99.4551 78.9783 92.8228 78.9783 84.6521C78.9783 76.4814 72.1353 69.8492 63.705 69.8492C61.7297 69.8492 59.8367 70.2138 58.1084 70.8862L32.2767 56.9379C31.3243 56.4251 30.1486 57.086 30.1486 58.1458C30.1368 66.2481 30.1133 92.7772 30.1133 97.5634C30.1133 98.0306 30.3602 98.4636 30.76 98.7143L42.1296 105.973C43.0703 106.577 44.3401 105.928 44.3401 104.834L44.3989 98.3041V98.3155ZM63.7168 77.7463C67.6556 77.7463 70.8419 80.8346 70.8419 84.6521C70.8419 88.4697 67.6556 91.5579 63.7168 91.5579C59.778 91.5579 56.5916 88.4697 56.5916 84.6521C56.5916 80.8346 59.778 77.7463 63.7168 77.7463Z" fill="black"/>
<path d="M151.628 98.7257C152.028 98.4636 152.275 98.042 152.275 97.5748C152.275 92.7886 152.252 66.2595 152.24 58.1458C152.24 57.086 151.064 56.4251 150.112 56.9379L124.28 70.8748C122.552 70.2138 120.659 69.8492 118.683 69.8492C110.253 69.8492 103.41 76.4814 103.41 84.6521C103.41 92.8228 110.253 99.4551 118.683 99.4551C127.114 99.4551 133.957 92.8228 133.957 84.6521C133.957 84.2533 133.933 83.843 133.898 83.4556L135.838 82.373C136.79 81.8374 137.978 82.5097 137.978 83.5695V98.3041L138.037 104.834C138.037 105.928 139.306 106.577 140.247 105.973L151.617 98.7143L151.628 98.7257ZM118.695 91.5579C114.756 91.5579 111.57 88.4697 111.57 84.6521C111.57 80.8346 114.756 77.7463 118.695 77.7463C122.634 77.7463 125.82 80.8346 125.82 84.6521C125.82 88.4697 122.634 91.5579 118.695 91.5579Z" fill="black"/>
<path d="M122.652 103.171L101.535 115.9C100.582 116.469 99.3478 115.808 99.3478 114.726V71.9351C99.3478 71.4451 99.6183 70.9892 100.065 70.7385L151.999 41.5771C152.446 41.3263 152.716 40.8705 152.716 40.3805V34.2383C152.716 33.7482 152.446 33.2924 151.999 33.0417L94.5037 0.700833C92.8341 -0.233611 90.7882 -0.233611 89.1187 0.700833L31.6118 33.0417C31.1767 33.2924 30.8945 33.7482 30.8945 34.2383V40.3805C30.8945 40.8705 31.165 41.3263 31.6118 41.5771L83.5455 70.7385C83.9923 70.9892 84.2627 71.4451 84.2627 71.9351V114.726C84.2627 115.808 83.0282 116.481 82.0758 115.9L60.959 103.171C60.0066 102.601 58.772 103.262 58.772 104.344V113.723C58.772 114.19 59.0189 114.635 59.4305 114.885L85.0505 130.805C89.1657 133.358 94.4331 133.358 98.5483 130.805L124.168 114.885C124.58 114.635 124.827 114.19 124.827 113.723V104.344C124.827 103.262 123.592 102.589 122.64 103.171H122.652ZM66.1206 43.765C65.6738 44.0043 65.1329 44.0043 64.6979 43.7536L55.2212 38.3521C54.2806 37.8165 54.2806 36.4946 55.2212 35.959L88.8953 16.7231C90.6942 15.6975 92.9399 15.6975 94.7388 16.7231L128.413 35.959C129.353 36.4946 129.353 37.8165 128.413 38.3521L118.936 43.7536C118.501 44.0043 117.949 44.0043 117.513 43.765L92.5284 30.0788C92.0933 29.8395 91.5525 29.8395 91.1175 30.0788L66.1324 43.765H66.1206ZM82.4285 51.0127L91.0469 45.7365C91.5172 45.4516 92.1051 45.4516 92.5754 45.7365L101.194 51.0127C102.076 51.5596 102.076 52.8132 101.194 53.3602L92.5754 58.6477C92.1051 58.9326 91.5172 58.9326 91.0469 58.6477L82.4285 53.3602C81.5467 52.8132 81.5467 51.5596 82.4285 51.0127Z" fill="black"/>
</svg>
