<svg xmlns="http://www.w3.org/2000/svg" xmlns:xlink="http://www.w3.org/1999/xlink" version="1.1" id="Layer_1" x="0px" y="0px" style="enable-background:new 0 0 1200 1200;" xml:space="preserve" viewBox="653.27 556.81 213.02 222.47">
<style type="text/css">
	.st0{fill:url(#SVGID_1_);}
</style>
<linearGradient id="SVGID_1_" gradientUnits="userSpaceOnUse" x1="911.0542" y1="786.5003" x2="319.4824" y2="194.9285">
	<stop offset="0.3478" style="stop-color:#FF0079"/>
	<stop offset="0.6175" style="stop-color:#5D21FB"/>
	<stop offset="0.9733" style="stop-color:#4C29B5"/>
</linearGradient>
<path class="st0" d="M863.49,745.59c1.75-1.15,2.8-3.1,2.8-5.2c-0.02-21.54-0.12-140.86-0.15-177.35c0-4.75-5.11-7.74-9.27-5.43  l-112.62,62.7c-7.55-2.97-15.77-4.63-24.38-4.63c-36.78,0-66.6,29.82-66.6,66.6c0,36.78,29.82,66.6,66.6,66.6s66.6-29.82,66.6-66.6  c0-1.82-0.09-3.62-0.24-5.4l8.44-4.85c4.16-2.39,9.34,0.61,9.34,5.4v66.3l0.26,29.36c0.04,4.94,5.54,7.87,9.66,5.15L863.49,745.59z   M719.88,713.34c-17.16,0-31.06-13.91-31.06-31.06s13.91-31.06,31.06-31.06c17.16,0,31.06,13.91,31.06,31.06  S737.04,713.34,719.88,713.34z"/>
</svg>