<svg width="40" height="38" viewBox="0 0 40 38" fill="none" xmlns="http://www.w3.org/2000/svg">
<path d="M20 36.1597H28M20 36.1597H12M20 36.1597V28.1597M20 28.1597C28 28.1597 35 27.493 36 26.8263C37 26.1597 38 20.493 38 15.1597C38 9.82633 37 4.15967 36 3.493C35 2.82633 28 2.15967 20 2.15967C12 2.15967 5 2.82633 4 3.493C3 4.15967 2 9.82633 2 15.1597C2 20.493 3 26.1597 4 26.8263C5 27.493 12 28.1597 20 28.1597Z" stroke="white" stroke-width="3.5" stroke-linecap="round" stroke-linejoin="round"/>
</svg>
