<svg width="40" height="39" viewBox="0 0 40 39" fill="none" xmlns="http://www.w3.org/2000/svg">
<rect width="40" height="39" rx="19.5" fill="url(#paint0_linear_2038_641)"/>
<path d="M16.2045 25V23.9773L20.0455 19.7727C20.4962 19.2803 20.8674 18.8523 21.1591 18.4886C21.4508 18.1212 21.6667 17.7765 21.8068 17.4545C21.9508 17.1288 22.0227 16.7879 22.0227 16.4318C22.0227 16.0227 21.9242 15.6686 21.7273 15.3693C21.5341 15.0701 21.2689 14.839 20.9318 14.6761C20.5947 14.5133 20.2159 14.4318 19.7955 14.4318C19.3485 14.4318 18.9583 14.5246 18.625 14.7102C18.2955 14.892 18.0398 15.1477 17.858 15.4773C17.6799 15.8068 17.5909 16.1932 17.5909 16.6364H16.25C16.25 15.9545 16.4072 15.3561 16.7216 14.8409C17.036 14.3258 17.464 13.9242 18.0057 13.6364C18.5511 13.3485 19.1629 13.2045 19.8409 13.2045C20.5227 13.2045 21.1269 13.3485 21.6534 13.6364C22.1799 13.9242 22.5928 14.3125 22.892 14.8011C23.1913 15.2898 23.3409 15.8333 23.3409 16.4318C23.3409 16.8598 23.2633 17.2784 23.108 17.6875C22.9564 18.0928 22.6913 18.5455 22.3125 19.0455C21.9375 19.5417 21.4167 20.1477 20.75 20.8636L18.1364 23.6591V23.75H23.5455V25H16.2045Z" fill="white"/>
<defs>
<linearGradient id="paint0_linear_2038_641" x1="36" y1="39" x2="-1.91597" y2="-7.80586" gradientUnits="userSpaceOnUse">
<stop stop-color="#4C29B5"/>
<stop offset="1" stop-color="#8945EC" stop-opacity="0.5"/>
</linearGradient>
</defs>
</svg>
