<svg width="40" height="39" viewBox="0 0 40 39" fill="none" xmlns="http://www.w3.org/2000/svg">
<rect width="40" height="39" rx="19.5" fill="url(#paint0_linear_2038_650)"/>
<path d="M19.6364 25.1591C18.8864 25.1591 18.2178 25.0303 17.6307 24.7727C17.0473 24.5152 16.5833 24.1572 16.2386 23.6989C15.8977 23.2367 15.7121 22.7008 15.6818 22.0909H17.1136C17.1439 22.4659 17.2727 22.7898 17.5 23.0625C17.7273 23.3314 18.0246 23.5398 18.392 23.6875C18.7595 23.8352 19.1667 23.9091 19.6136 23.9091C20.1136 23.9091 20.5568 23.822 20.9432 23.6477C21.3295 23.4735 21.6326 23.2311 21.8523 22.9205C22.072 22.6098 22.1818 22.25 22.1818 21.8409C22.1818 21.4129 22.0758 21.036 21.8636 20.7102C21.6515 20.3807 21.3409 20.1231 20.9318 19.9375C20.5227 19.7519 20.0227 19.6591 19.4318 19.6591H18.5V18.4091H19.4318C19.8939 18.4091 20.2992 18.3258 20.6477 18.1591C21 17.9924 21.2746 17.7576 21.4716 17.4545C21.6723 17.1515 21.7727 16.7955 21.7727 16.3864C21.7727 15.9924 21.6856 15.6496 21.5114 15.358C21.3371 15.0663 21.0909 14.839 20.7727 14.6761C20.4583 14.5133 20.0871 14.4318 19.6591 14.4318C19.2576 14.4318 18.8788 14.5057 18.5227 14.6534C18.1705 14.7973 17.8826 15.0076 17.6591 15.2841C17.4356 15.5568 17.3144 15.8864 17.2955 16.2727H15.9318C15.9545 15.6629 16.1383 15.1288 16.483 14.6705C16.8277 14.2083 17.2784 13.8485 17.8352 13.5909C18.3958 13.3333 19.0114 13.2045 19.6818 13.2045C20.4015 13.2045 21.0189 13.3504 21.5341 13.642C22.0492 13.9299 22.4451 14.3106 22.7216 14.7841C22.9981 15.2576 23.1364 15.7689 23.1364 16.3182C23.1364 16.9735 22.964 17.5322 22.6193 17.9943C22.2784 18.4564 21.8144 18.7765 21.2273 18.9545V19.0455C21.9621 19.1667 22.536 19.4792 22.9489 19.983C23.3617 20.483 23.5682 21.1023 23.5682 21.8409C23.5682 22.4735 23.3958 23.0417 23.0511 23.5455C22.7102 24.0455 22.2443 24.4394 21.6534 24.7273C21.0625 25.0152 20.3902 25.1591 19.6364 25.1591Z" fill="white"/>
<defs>
<linearGradient id="paint0_linear_2038_650" x1="36" y1="39" x2="-1.91597" y2="-7.80586" gradientUnits="userSpaceOnUse">
<stop stop-color="#4C29B5"/>
<stop offset="1" stop-color="#8945EC" stop-opacity="0.5"/>
</linearGradient>
</defs>
</svg>
