<svg width="36" height="40" viewBox="0 0 36 40" fill="none" xmlns="http://www.w3.org/2000/svg">
<path d="M2 6.00415L14 6.00415M14 6.00415C14 8.21329 15.7909 10.0042 18 10.0042C20.2091 10.0042 22 8.21329 22 6.00415M14 6.00415C14 3.79501 15.7909 2.00415 18 2.00415C20.2091 2.00415 22 3.79501 22 6.00415M22 6.00415L34 6.00415M2 20.0042L26 20.0042M26 20.0042C26 22.2133 27.7909 24.0042 30 24.0042C32.2091 24.0042 34 22.2133 34 20.0042C34 17.795 32.2091 16.0042 30 16.0042C27.7909 16.0042 26 17.795 26 20.0042ZM10 34.0042L34 34.0042M10 34.0042C10 31.795 8.20914 30.0042 6 30.0042C3.79086 30.0042 2 31.795 2 34.0042C2 36.2133 3.79086 38.0042 6 38.0042C8.20914 38.0042 10 36.2133 10 34.0042Z" stroke="#4C29B5" stroke-width="3.5" stroke-linecap="round"/>
</svg>
