<svg width="8" height="14" viewBox="0 0 8 14" fill="none" xmlns="http://www.w3.org/2000/svg">
<path fill-rule="evenodd" clip-rule="evenodd" d="M7.61236 6.55409C7.80454 6.74036 7.9125 6.99296 7.9125 7.25634C7.9125 7.51973 7.80454 7.77233 7.61236 7.9586L1.81326 13.5776C1.71869 13.6725 1.60558 13.7481 1.48051 13.8002C1.35544 13.8523 1.22092 13.8797 1.08481 13.8808C0.948694 13.882 0.813707 13.8568 0.687724 13.8069C0.56174 13.7569 0.447283 13.6832 0.351032 13.5899C0.25478 13.4967 0.178662 13.3858 0.127118 13.2637C0.0755742 13.1416 0.0496372 13.0108 0.05082 12.8789C0.0520028 12.747 0.080282 12.6167 0.134008 12.4955C0.187733 12.3743 0.265829 12.2647 0.363738 12.1731L5.43808 7.25634L0.363738 2.33958C0.177004 2.15225 0.0736778 1.90134 0.0760135 1.6409C0.0783491 1.38047 0.18616 1.13134 0.376225 0.947176C0.566291 0.763013 0.823404 0.658551 1.09219 0.656288C1.36097 0.654024 1.61992 0.754142 1.81326 0.935077L7.61236 6.55409Z" fill="#73509F"/>
</svg>
