<svg width="13" height="15" viewBox="0 0 13 15" fill="none" xmlns="http://www.w3.org/2000/svg">
<path d="M0.0546875 8.12644H3.82705V6.86899H0.0546875V1.11363C0.0546969 1.059 0.0689409 1.00532 0.0960158 0.957871C0.123091 0.910426 0.162062 0.870855 0.209088 0.843058C0.256114 0.815261 0.309572 0.800198 0.364193 0.799354C0.418813 0.79851 0.472711 0.811913 0.520574 0.838244L12.1281 7.22233C12.1774 7.24947 12.2185 7.28934 12.2471 7.33777C12.2758 7.38621 12.2909 7.44145 12.2909 7.49771C12.2909 7.55398 12.2758 7.60921 12.2471 7.65765C12.2185 7.70609 12.1774 7.74596 12.1281 7.77309L0.520574 14.1572C0.472711 14.1835 0.418813 14.1969 0.364193 14.1961C0.309572 14.1952 0.256114 14.1802 0.209088 14.1524C0.162062 14.1246 0.123091 14.085 0.0960158 14.0376C0.0689409 13.9901 0.0546969 13.9364 0.0546875 13.8818V8.12644Z" fill="white"/>
</svg>
