<svg width="24" height="25" viewBox="0 0 24 25" fill="none" xmlns="http://www.w3.org/2000/svg">
<path d="M3 17.7505C3 20.6181 3.88235 21.5005 6.75 21.5005C9.61765 21.5005 10.5 20.6181 10.5 17.7505C10.5 14.8828 9.61765 14.0005 6.75 14.0005C3.88235 14.0005 3 14.8828 3 17.7505Z" stroke="white" stroke-linecap="round" stroke-linejoin="round"/>
<path d="M13.5 17.7505C13.5 20.6181 14.3824 21.5005 17.25 21.5005C20.1176 21.5005 21 20.6181 21 17.7505C21 14.8828 20.1176 14.0005 17.25 14.0005C14.3824 14.0005 13.5 14.8828 13.5 17.7505Z" stroke="white" stroke-linecap="round" stroke-linejoin="round"/>
<path d="M13.5 7.25049C13.5 10.1181 14.3824 11.0005 17.25 11.0005C20.1176 11.0005 21 10.1181 21 7.25049C21 4.38284 20.1176 3.50049 17.25 3.50049C14.3824 3.50049 13.5 4.38284 13.5 7.25049Z" stroke="white" stroke-linecap="round" stroke-linejoin="round"/>
<path d="M3 7.25049C3 10.1181 3.88235 11.0005 6.75 11.0005C9.61765 11.0005 10.5 10.1181 10.5 7.25049C10.5 4.38284 9.61765 3.50049 6.75 3.50049C3.88235 3.50049 3 4.38284 3 7.25049Z" stroke="white" stroke-linecap="round" stroke-linejoin="round"/>
</svg>
