<svg width="45" height="46" viewBox="0 0 45 46" fill="none" xmlns="http://www.w3.org/2000/svg">
<path d="M21.9365 16.3625C22.124 21.0875 25.949 24.9875 30.6365 25.3625C31.949 25.4375 33.2615 25.2875 34.4615 24.9125C35.099 24.6875 37.4615 25.8875 38.8115 26.5625C39.149 26.7125 39.5615 26.4125 39.4115 26.0375C38.924 24.725 38.2115 22.5875 38.549 22.2125C40.1615 20.375 41.099 17.9 40.9115 15.2C40.574 10.475 36.6365 6.64999 31.874 6.42499C26.2865 6.12499 21.674 10.7375 21.9365 16.3625Z" fill="#4C29B5"/>
<path d="M30.824 24.4625C30.524 31.1375 25.1615 36.65 18.524 37.175C16.649 37.2875 14.849 37.0625 13.124 36.5375C12.2615 36.2375 8.92396 37.8875 6.97396 38.8625C6.52396 39.0875 5.92396 38.6375 6.14896 38.1125C6.86146 36.2375 7.83646 33.275 7.38646 32.7125C5.09896 30.125 3.82396 26.6375 4.04896 22.8125C4.53646 16.175 10.124 10.775 16.799 10.475C24.674 10.0625 31.1615 16.5875 30.824 24.4625Z" fill="white"/>
<path d="M14.0237 20.1874H20.9237C21.3737 20.1874 21.7862 19.7749 21.7862 19.3249C21.7862 18.8749 21.3737 18.4624 20.9237 18.4624H14.0237C13.5737 18.4624 13.1612 18.8749 13.1612 19.3249C13.0862 19.7749 13.4987 20.1874 14.0237 20.1874Z" fill="#4C29B5"/>
<path d="M20.9227 27.3874H14.0227C13.5727 27.3874 13.1602 27.7999 13.1602 28.2499C13.1602 28.6999 13.5727 29.1124 14.0227 29.1124H20.9227C21.3727 29.1124 21.7852 28.6999 21.7852 28.2499C21.8227 27.7999 21.4102 27.3874 20.9227 27.3874Z" fill="#4C29B5"/>
<path d="M24.4477 22.8874H10.4602C10.0102 22.8874 9.59766 23.2999 9.59766 23.7499C9.59766 24.1999 10.0102 24.6124 10.4602 24.6124H24.3727C24.8227 24.6124 25.2352 24.1999 25.2352 23.7499C25.3102 23.2999 24.8977 22.8874 24.4477 22.8874Z" fill="#4C29B5"/>
</svg>
