<svg width="1440" height="728" viewBox="0 0 1440 728" fill="none" xmlns="http://www.w3.org/2000/svg">
<path d="M-433.3 635.135V631L1872 631V635.135C1869.93 653.213 1579.92 726.39 719.35 727.159C-141.219 727.929 -433.3 652.828 -433.3 635.135Z" fill="#FC017C"/>
<rect width="1440" height="535" transform="translate(0 96)" fill="url(#paint0_linear_399_18252)"/>
<path d="M697.75 445.664H693.973V443.414H704.019V445.664H700.242V454.912H697.75V445.664Z" fill="white"/>
<path d="M717.691 454.912H715.18V443.423H717.691V447.987H723.124V443.423H725.616V454.912H723.124V450.228H717.691V454.912Z" fill="white"/>
<path d="M736.77 443.414H745.579V445.664H739.281V447.997H744.628V450.228H739.281V452.681H745.665V454.912H736.77V443.414Z" fill="white"/>
<path d="M579.375 490.456C579.375 484.573 581.744 479.667 586.472 475.739C591.201 471.82 597.08 469.856 604.111 469.856C608.935 469.856 613.32 470.852 617.269 472.853C621.264 474.891 624.252 477.639 626.231 481.097L616.726 484.093C615.528 482.176 613.806 480.663 611.56 479.566C609.306 478.469 606.832 477.915 604.121 477.915C599.982 477.915 596.538 479.114 593.788 481.502C591.029 483.9 589.659 486.86 589.659 490.391C589.659 493.923 590.972 496.901 593.589 499.336C596.253 501.733 599.563 502.923 603.512 502.923C606.499 502.923 609.182 502.222 611.57 500.829C613.958 499.437 615.585 497.584 616.46 495.269H602.332V488.086H627.62C627.62 488.28 627.658 488.649 627.724 489.174C627.791 489.7 627.829 490.05 627.829 490.207C627.734 496.21 625.422 501.152 620.874 505.034C616.232 508.999 610.495 510.982 603.645 510.982C596.795 510.982 590.991 509.018 586.349 505.099C581.706 501.134 579.394 496.256 579.394 490.447" fill="white"/>
<path d="M632.223 470.566H666.739V478.34H642.069V486.399H663.019V494.107H642.069V502.581H667.081V510.29H632.223V470.566Z" fill="white"/>
<path d="M680.588 510.29H671.141V470.566H679.893L703.05 495.869V470.566H712.488V510.29H703.802L680.588 484.988V510.29Z" fill="white"/>
<path d="M748.666 494.227V470.566H758.522V494.227C758.522 498.939 756.544 502.923 752.595 506.177C748.695 509.396 743.824 511 737.992 511C732.16 511 727.289 509.396 723.388 506.177C719.487 502.959 717.527 498.976 717.527 494.227V470.566H727.384V494.227C727.384 496.818 728.392 498.976 730.419 500.7C732.436 502.425 734.966 503.291 738.001 503.291C741.036 503.291 743.624 502.425 745.65 500.7C747.667 498.976 748.685 496.818 748.685 494.227" fill="white"/>
<path d="M773.403 470.566H763.547V510.29H773.403V470.566Z" fill="white"/>
<path d="M810.81 484.988L787.596 510.29H778.91V470.566H788.348V495.869L811.505 470.566H820.257V510.29H810.81V484.988Z" fill="white"/>
<path d="M825.766 470.566H860.282V478.34H835.612V486.399H856.562V494.107H835.612V502.581H860.624V510.29H825.766V470.566Z" fill="white"/>
<path d="M648.048 369.455V346.457C648.048 344.785 649.901 343.753 651.388 344.589L654.434 346.279C654.379 346.884 654.342 347.506 654.342 348.129C654.342 360.882 665.023 371.234 678.181 371.234C691.34 371.234 702.021 360.882 702.021 348.129C702.021 335.376 691.34 325.024 678.181 325.024C675.098 325.024 672.144 325.593 669.446 326.642L629.127 304.871C627.64 304.071 625.805 305.102 625.805 306.757C625.787 319.403 625.75 360.811 625.75 368.281C625.75 369.011 626.135 369.686 626.759 370.078L644.506 381.408C645.974 382.351 647.956 381.337 647.956 379.629L648.048 369.437V369.455ZM678.2 337.35C684.348 337.35 689.321 342.17 689.321 348.129C689.321 354.087 684.348 358.908 678.2 358.908C672.052 358.908 667.079 354.087 667.079 348.129C667.079 342.17 672.052 337.35 678.2 337.35Z" fill="white"/>
<path d="M815.414 370.096C816.038 369.686 816.423 369.028 816.423 368.299C816.423 360.829 816.386 319.421 816.368 306.757C816.368 305.102 814.533 304.071 813.046 304.871L772.727 326.625C770.029 325.593 767.075 325.024 763.992 325.024C750.833 325.024 740.152 335.376 740.152 348.129C740.152 360.882 750.833 371.234 763.992 371.234C777.15 371.234 787.831 360.882 787.831 348.129C787.831 347.506 787.794 346.866 787.739 346.261L790.767 344.571C792.253 343.735 794.107 344.785 794.107 346.439V369.437L794.199 379.629C794.199 381.337 796.181 382.351 797.649 381.408L815.395 370.078L815.414 370.096ZM764.01 358.908C757.862 358.908 752.889 354.087 752.889 348.129C752.889 342.17 757.862 337.35 764.01 337.35C770.158 337.35 775.131 342.17 775.131 348.129C775.131 354.087 770.158 358.908 764.01 358.908Z" fill="white"/>
<path d="M770.187 377.033L737.227 396.901C735.741 397.79 733.814 396.759 733.814 395.069V328.279C733.814 327.515 734.236 326.803 734.933 326.412L815.994 280.895C816.691 280.504 817.113 279.792 817.113 279.028V269.441C817.113 268.676 816.691 267.964 815.994 267.573L726.253 217.094C723.647 215.635 720.453 215.635 717.848 217.094L628.088 267.573C627.409 267.964 626.969 268.676 626.969 269.441V279.028C626.969 279.792 627.391 280.504 628.088 280.895L709.149 326.412C709.846 326.803 710.268 327.515 710.268 328.279V395.069C710.268 396.759 708.341 397.808 706.855 396.901L673.895 377.033C672.408 376.144 670.481 377.175 670.481 378.865V393.504C670.481 394.233 670.867 394.927 671.509 395.318L711.498 420.166C717.921 424.15 726.143 424.15 732.566 420.166L772.555 395.318C773.197 394.927 773.582 394.233 773.582 393.504V378.865C773.582 377.175 771.655 376.126 770.169 377.033H770.187ZM681.951 284.31C681.254 284.684 680.41 284.684 679.731 284.293L664.939 275.862C663.471 275.026 663.471 272.962 664.939 272.126L717.499 242.102C720.307 240.501 723.812 240.501 726.62 242.102L779.18 272.126C780.648 272.962 780.648 275.026 779.18 275.862L764.388 284.293C763.709 284.684 762.846 284.684 762.167 284.31L723.17 262.948C722.491 262.575 721.646 262.575 720.967 262.948L681.969 284.31H681.951ZM707.405 295.623L720.857 287.387C721.591 286.943 722.509 286.943 723.243 287.387L736.695 295.623C738.071 296.477 738.071 298.433 736.695 299.287L723.243 307.54C722.509 307.985 721.591 307.985 720.857 307.54L707.405 299.287C706.029 298.433 706.029 296.477 707.405 295.623Z" fill="white"/>
<path d="M-433.3 92.0302V96.165L1872 96.165V92.0302C1869.93 73.9522 1579.92 0.77504 719.35 0.00576782C-141.219 -0.763504 -433.3 74.3369 -433.3 92.0302Z" fill="#5D22F6"/>
<defs>
<linearGradient id="paint0_linear_399_18252" x1="720" y1="0" x2="720" y2="535" gradientUnits="userSpaceOnUse">
<stop stop-color="#5C22F6"/>
<stop offset="1" stop-color="#FF0079"/>
</linearGradient>
</defs>
</svg>
