<svg width="46" height="48" viewBox="0 0 46 48" fill="none" xmlns="http://www.w3.org/2000/svg">
<path d="M6.0851 35.6218V30.3205C6.0851 29.9351 6.51236 29.6973 6.85501 29.89L7.55724 30.2795C7.54455 30.4189 7.53609 30.5624 7.53609 30.7059C7.53609 33.6456 9.99811 36.0318 13.0312 36.0318C16.0643 36.0318 18.5263 33.6456 18.5263 30.7059C18.5263 27.7662 16.0643 25.38 13.0312 25.38C12.3205 25.38 11.6395 25.5112 11.0176 25.7531L1.72368 20.7346C1.38103 20.5501 0.958003 20.7879 0.958003 21.1692C0.953773 24.0843 0.945312 33.6292 0.945312 35.3512C0.945312 35.5193 1.03415 35.6751 1.17798 35.7653L5.26866 38.377C5.60708 38.5943 6.06395 38.3606 6.06395 37.967L6.0851 35.6177V35.6218ZM13.0354 28.2213C14.4526 28.2213 15.599 29.3324 15.599 30.7059C15.599 32.0794 14.4526 33.1905 13.0354 33.1905C11.6183 33.1905 10.4719 32.0794 10.4719 30.7059C10.4719 29.3324 11.6183 28.2213 13.0354 28.2213Z" fill="#4C29B5"/>
<path d="M44.6648 35.7694C44.8086 35.6751 44.8974 35.5234 44.8974 35.3553C44.8974 33.6333 44.889 24.0884 44.8848 21.1692C44.8848 20.7879 44.4617 20.5501 44.1191 20.7346L34.8251 25.749C34.2033 25.5112 33.5222 25.38 32.8115 25.38C29.7784 25.38 27.3164 27.7662 27.3164 30.7059C27.3164 33.6456 29.7784 36.0318 32.8115 36.0318C35.8446 36.0318 38.3067 33.6456 38.3067 30.7059C38.3067 30.5624 38.2982 30.4148 38.2855 30.2754L38.9835 29.8859C39.3262 29.6932 39.7534 29.9351 39.7534 30.3164V35.6177L39.7746 37.967C39.7746 38.3606 40.2314 38.5943 40.5699 38.377L44.6605 35.7653L44.6648 35.7694ZM32.8158 33.1905C31.3986 33.1905 30.2522 32.0794 30.2522 30.7059C30.2522 29.3324 31.3986 28.2213 32.8158 28.2213C34.2329 28.2213 35.3793 29.3324 35.3793 30.7059C35.3793 32.0794 34.2329 33.1905 32.8158 33.1905Z" fill="#4C29B5"/>
<path d="M34.2397 37.3686L26.6421 41.9483C26.2994 42.1533 25.8552 41.9155 25.8552 41.526V26.1304C25.8552 25.9541 25.9525 25.7901 26.1133 25.6999L44.7984 15.2079C44.9592 15.1177 45.0565 14.9537 45.0565 14.7774V12.5675C45.0565 12.3912 44.9592 12.2272 44.7984 12.137L24.1124 0.501175C23.5117 0.164973 22.7756 0.164973 22.1749 0.501175L1.48461 12.137C1.32809 12.2272 1.22656 12.3912 1.22656 12.5675V14.7774C1.22656 14.9537 1.32386 15.1177 1.48461 15.2079L20.1697 25.6999C20.3305 25.7901 20.4278 25.9541 20.4278 26.1304V41.526C20.4278 41.9155 19.9836 42.1574 19.641 41.9483L12.0434 37.3686C11.7007 37.1636 11.2566 37.4014 11.2566 37.7909V41.1652C11.2566 41.3333 11.3454 41.4932 11.4934 41.5834L20.7112 47.3111C22.1918 48.2295 24.087 48.2295 25.5676 47.3111L34.7854 41.5834C34.9334 41.4932 35.0223 41.3333 35.0223 41.1652V37.7909C35.0223 37.4014 34.5781 37.1595 34.2354 37.3686H34.2397ZM13.9005 15.9951C13.7397 16.0812 13.5451 16.0813 13.3886 15.991L9.97901 14.0476C9.64058 13.8549 9.64058 13.3793 9.97901 13.1866L22.0945 6.2658C22.7418 5.8968 23.5497 5.8968 24.197 6.2658L36.3125 13.1866C36.6509 13.3793 36.6509 13.8549 36.3125 14.0476L32.9029 15.991C32.7464 16.0813 32.5475 16.0812 32.391 15.9951L23.4017 11.071C23.2452 10.9849 23.0506 10.9849 22.894 11.071L13.9047 15.9951H13.9005ZM19.7679 18.6028L22.8687 16.7045C23.0379 16.602 23.2494 16.602 23.4186 16.7045L26.5194 18.6028C26.8367 18.7996 26.8367 19.2506 26.5194 19.4474L23.4186 21.3498C23.2494 21.4523 23.0379 21.4523 22.8687 21.3498L19.7679 19.4474C19.4506 19.2506 19.4506 18.7996 19.7679 18.6028Z" fill="#4C29B5"/>
</svg>
