<svg width="46" height="36" viewBox="0 0 46 36" fill="none" xmlns="http://www.w3.org/2000/svg">
<path d="M5 10L7.88587 27.3152C8.52878 31.1727 11.8663 34 15.777 34H30.223C34.1337 34 37.4712 31.1727 38.1141 27.3152L41 10M5 10L12.512 16.1462C14.3675 17.6643 17.1325 17.2204 18.4196 15.1978L23 8M5 10C6.65685 10 8 8.65685 8 7C8 5.34315 6.65685 4 5 4C3.34315 4 2 5.34315 2 7C2 8.65685 3.34315 10 5 10ZM41 10L33.488 16.1462C31.6325 17.6643 28.8675 17.2204 27.5804 15.1978L23 8M41 10C42.6569 10 44 8.65685 44 7C44 5.34315 42.6569 4 41 4C39.3431 4 38 5.34315 38 7C38 8.65685 39.3431 10 41 10ZM23 8C24.6569 8 26 6.65685 26 5C26 3.34315 24.6569 2 23 2C21.3431 2 20 3.34315 20 5C20 6.65685 21.3431 8 23 8Z" stroke="#4C29B5" stroke-width="3.5" stroke-linecap="round" stroke-linejoin="round"/>
</svg>
