<svg width="17" height="16" viewBox="0 0 17 16" fill="none" xmlns="http://www.w3.org/2000/svg">
<path d="M5.29317 0H11.7032C14.1476 0 16.1292 1.97187 16.1292 4.40428V10.7829C16.1292 13.2153 14.1476 15.1872 11.7032 15.1872H5.29317C2.84877 15.1872 0.867188 13.2153 0.867188 10.7829V4.40428C0.867188 1.97187 2.84877 0 5.29317 0ZM5.14055 1.5187C3.62333 1.5187 2.39339 2.74262 2.39339 4.2524V10.9348C2.39339 12.4445 3.62333 13.6685 5.14055 13.6685H11.8558C13.373 13.6685 14.603 12.4445 14.603 10.9348V4.2524C14.603 2.74262 13.373 1.5187 11.8558 1.5187H5.14055ZM12.5045 2.65774C13.0313 2.65774 13.4583 3.08272 13.4583 3.60694C13.4583 4.13117 13.0313 4.55614 12.5045 4.55614C11.9776 4.55614 11.5506 4.13117 11.5506 3.60694C11.5506 3.08272 11.9776 2.65774 12.5045 2.65774ZM8.49819 3.79678C10.6054 3.79678 12.3137 5.49667 12.3137 7.59358C12.3137 9.69047 10.6054 11.3904 8.49819 11.3904C6.39094 11.3904 4.68269 9.69047 4.68269 7.59358C4.68269 5.49667 6.39094 3.79678 8.49819 3.79678ZM8.49819 5.3155C7.23381 5.3155 6.20889 6.33547 6.20889 7.59358C6.20889 8.85176 7.23381 9.87166 8.49819 9.87166C9.76257 9.87166 10.7875 8.85176 10.7875 7.59358C10.7875 6.33547 9.76257 5.3155 8.49819 5.3155Z" fill="white"/>
</svg>
