<svg width="25" height="24" viewBox="0 0 25 24" fill="none" xmlns="http://www.w3.org/2000/svg">
<path d="M22.2109 3.47059V20.5294C22.2109 20.9194 22.056 21.2935 21.7802 21.5693C21.5044 21.8451 21.1304 22 20.7404 22H3.68153C3.2915 22 2.91745 21.8451 2.64166 21.5693C2.36587 21.2935 2.21094 20.9194 2.21094 20.5294V3.47059C2.21094 3.08056 2.36587 2.70651 2.64166 2.43073C2.91745 2.15494 3.2915 2 3.68153 2H20.7404C21.1304 2 21.5044 2.15494 21.7802 2.43073C22.056 2.70651 22.2109 3.08056 22.2109 3.47059ZM8.09329 9.64706H5.15211V19.0588H8.09329V9.64706ZM8.358 6.41177C8.35955 6.18929 8.31726 5.96869 8.23355 5.76255C8.14984 5.55642 8.02635 5.36879 7.87013 5.21039C7.71391 5.05198 7.52802 4.92589 7.32307 4.83933C7.11811 4.75277 6.89812 4.70742 6.67564 4.70588H6.6227C6.17027 4.70588 5.73638 4.88561 5.41646 5.20552C5.09655 5.52544 4.91682 5.95934 4.91682 6.41177C4.91682 6.86419 5.09655 7.29809 5.41646 7.61801C5.73638 7.93792 6.17027 8.11765 6.6227 8.11765C6.84519 8.12312 7.06658 8.0847 7.27422 8.00458C7.48186 7.92447 7.67168 7.80422 7.83283 7.65072C7.99398 7.49722 8.1233 7.31346 8.21341 7.10996C8.30352 6.90646 8.35265 6.6872 8.358 6.46471V6.41177ZM19.2698 13.3412C19.2698 10.5118 17.4698 9.41177 15.6815 9.41177C15.096 9.38245 14.5131 9.50715 13.9908 9.77345C13.4685 10.0397 13.0252 10.4383 12.7051 10.9294H12.6227V9.64706H9.858V19.0588H12.7992V14.0529C12.7567 13.5403 12.9182 13.0315 13.2486 12.6372C13.579 12.2429 14.0517 11.9949 14.5639 11.9471H14.6756C15.6109 11.9471 16.3051 12.5353 16.3051 14.0176V19.0588H19.2462L19.2698 13.3412Z" fill="white"/>
</svg>
