<svg width="54" height="55" viewBox="0 0 54 55" fill="none" xmlns="http://www.w3.org/2000/svg">
<path d="M22.8688 42.6162H22.168V42.1987H24.0322V42.6162H23.3314V44.3324H22.8688V42.6162Z" fill="white"/>
<path d="M26.5676 44.3324H26.1016V42.2004H26.5676V43.0474H27.5757V42.2004H28.0382V44.3324H27.5757V43.4632H26.5676V44.3324Z" fill="white"/>
<path d="M30.1094 42.1987H31.7441V42.6162H30.5754V43.0491H31.5676V43.4632H30.5754V43.9183H31.76V44.3324H30.1094V42.1987Z" fill="white"/>
<path d="M0.90625 50.9281C0.90625 49.8365 1.34583 48.9262 2.22323 48.1973C3.10062 47.4702 4.19163 47.1057 5.49625 47.1057C6.3913 47.1057 7.20514 47.2905 7.93778 47.6618C8.67924 48.0399 9.23357 48.5498 9.60077 49.1914L7.83715 49.7475C7.61471 49.3916 7.29518 49.111 6.87855 48.9074C6.46015 48.7038 6.00115 48.6011 5.49802 48.6011C4.73007 48.6011 4.091 48.8236 3.58081 49.2667C3.06885 49.7116 2.81463 50.2608 2.81463 50.9162C2.81463 51.5715 3.05825 52.1241 3.54374 52.5759C4.03804 53.0207 4.6524 53.2414 5.38503 53.2414C5.93936 53.2414 6.4372 53.1114 6.88031 52.853C7.32342 52.5947 7.62531 52.2508 7.78772 51.8213H5.16612V50.4884H9.85852C9.85852 50.5243 9.86558 50.5928 9.87794 50.6903C9.8903 50.7878 9.89736 50.8529 9.89736 50.8819C9.8797 51.9958 9.45072 52.9129 8.60686 53.6333C7.74535 54.369 6.68083 54.7369 5.40975 54.7369C4.13867 54.7369 3.06178 54.3724 2.20028 53.6452C1.33877 52.9095 0.909781 52.0044 0.909781 50.9264" fill="white"/>
<path d="M10.7148 47.2368H17.1197V48.6792H12.542V50.1746H16.4294V51.6051H12.542V53.1775H17.1832V54.6079H10.7148V47.2368Z" fill="white"/>
<path d="M19.6866 54.6079H17.9336V47.2368H19.5577L23.8547 51.9319V47.2368H25.606V54.6079H23.9942L19.6866 49.9129V54.6079Z" fill="white"/>
<path d="M32.3211 51.6273V47.2368H34.15V51.6273C34.15 52.5016 33.7828 53.2408 33.0502 53.8448C32.3264 54.4419 31.4225 54.7397 30.3403 54.7397C29.2581 54.7397 28.3543 54.4419 27.6304 53.8448C26.9066 53.2476 26.543 52.5085 26.543 51.6273V47.2368H28.3719V51.6273C28.3719 52.1081 28.559 52.5085 28.9351 52.8284C29.3093 53.1484 29.7789 53.3092 30.3421 53.3092C30.9052 53.3092 31.3854 53.1484 31.7614 52.8284C32.1357 52.5085 32.3246 52.1081 32.3246 51.6273" fill="white"/>
<path d="M36.9188 47.2368H35.0898V54.6079H36.9188V47.2368Z" fill="white"/>
<path d="M43.8412 49.9129L39.5337 54.6079H37.9219V47.2368H39.6731V51.9319L43.9701 47.2368H45.5942V54.6079H43.8412V49.9129Z" fill="white"/>
<path d="M46.625 47.2368H53.0298V48.6792H48.4522V50.1746H52.3396V51.6051H48.4522V53.1775H53.0934V54.6079H46.625V47.2368Z" fill="white"/>
<path d="M13.6532 28.4745V24.2069C13.6532 23.8966 13.9971 23.7052 14.2729 23.8603L14.8382 24.1739C14.828 24.2861 14.8212 24.4016 14.8212 24.5171C14.8212 26.8836 16.8031 28.8045 19.2448 28.8045C21.6864 28.8045 23.6684 26.8836 23.6684 24.5171C23.6684 22.1507 21.6864 20.2298 19.2448 20.2298C18.6727 20.2298 18.1244 20.3354 17.6238 20.5301L10.1422 16.4903C9.86638 16.3417 9.52584 16.5332 9.52584 16.8401C9.52244 19.1868 9.51562 26.8704 9.51562 28.2566C9.51562 28.3919 9.58714 28.5174 9.70292 28.59L12.9959 30.6924C13.2684 30.8673 13.6361 30.6792 13.6361 30.3624L13.6532 28.4712V28.4745ZM19.2482 22.517C20.389 22.517 21.3119 23.4115 21.3119 24.5171C21.3119 25.6228 20.389 26.5172 19.2482 26.5172C18.1074 26.5172 17.1845 25.6228 17.1845 24.5171C17.1845 23.4115 18.1074 22.517 19.2482 22.517Z" fill="white"/>
<path d="M44.7155 28.5933C44.8312 28.5174 44.9028 28.3952 44.9028 28.2599C44.9028 26.8737 44.8959 19.1901 44.8925 16.8401C44.8925 16.5332 44.552 16.3417 44.2762 16.4903L36.7945 20.5268C36.294 20.3354 35.7457 20.2298 35.1736 20.2298C32.7319 20.2298 30.75 22.1507 30.75 24.5171C30.75 26.8836 32.7319 28.8045 35.1736 28.8045C37.6152 28.8045 39.5972 26.8836 39.5972 24.5171C39.5972 24.4016 39.5904 24.2828 39.5801 24.1706L40.142 23.857C40.4179 23.7019 40.7618 23.8966 40.7618 24.2036V28.4712L40.7788 30.3624C40.7788 30.6792 41.1466 30.8673 41.419 30.6924L44.712 28.59L44.7155 28.5933ZM35.177 26.5172C34.0362 26.5172 33.1133 25.6228 33.1133 24.5171C33.1133 23.4115 34.0362 22.517 35.177 22.517C36.3178 22.517 37.2407 23.4115 37.2407 24.5171C37.2407 25.6228 36.3178 26.5172 35.177 26.5172Z" fill="white"/>
<path d="M36.3217 29.8813L30.2056 33.5679C29.9298 33.733 29.5722 33.5415 29.5722 33.228V20.8345C29.5722 20.6926 29.6505 20.5606 29.7799 20.488L44.8215 12.0419C44.9509 11.9693 45.0292 11.8373 45.0292 11.6954V9.91641C45.0292 9.77449 44.9509 9.64247 44.8215 9.56986L28.1692 0.202982C27.6856 -0.0676607 27.0931 -0.0676607 26.6095 0.202982L9.95382 9.56986C9.82782 9.64247 9.74609 9.77449 9.74609 9.91641V11.6954C9.74609 11.8373 9.82442 11.9693 9.95382 12.0419L24.9954 20.488C25.1248 20.5606 25.2031 20.6926 25.2031 20.8345V33.228C25.2031 33.5415 24.8455 33.7363 24.5697 33.5679L18.4536 29.8813C18.1778 29.7162 17.8202 29.9077 17.8202 30.2212V32.9375C17.8202 33.0729 17.8918 33.2016 18.0109 33.2742L25.4313 37.885C26.6231 38.6243 28.1488 38.6243 29.3406 37.885L36.761 33.2742C36.8801 33.2016 36.9517 33.0729 36.9517 32.9375V30.2212C36.9517 29.9077 36.5941 29.7129 36.3183 29.8813H36.3217ZM19.9486 12.6756C19.8192 12.745 19.6626 12.745 19.5366 12.6723L16.7918 11.1079C16.5194 10.9528 16.5194 10.5699 16.7918 10.4148L26.5448 4.84351C27.0658 4.54647 27.7163 4.54647 28.2373 4.84351L37.9903 10.4148C38.2627 10.5699 38.2627 10.9528 37.9903 11.1079L35.2456 12.6723C35.1196 12.745 34.9595 12.745 34.8335 12.6756L27.5971 8.71172C27.4711 8.64241 27.3144 8.64241 27.1884 8.71172L19.952 12.6756H19.9486ZM24.6719 14.7748L27.168 13.2466C27.3042 13.1641 27.4745 13.1641 27.6107 13.2466L30.1068 14.7748C30.3622 14.9332 30.3622 15.2963 30.1068 15.4547L27.6107 16.9861C27.4745 17.0686 27.3042 17.0686 27.168 16.9861L24.6719 15.4547C24.4165 15.2963 24.4165 14.9332 24.6719 14.7748Z" fill="white"/>
</svg>
