<svg width="27" height="33" viewBox="0 0 27 33" fill="none" xmlns="http://www.w3.org/2000/svg">
<path d="M16.4154 1.96988H4.7487C3.97515 1.96988 3.23328 2.27717 2.6863 2.82415C2.13932 3.37113 1.83203 4.113 1.83203 4.88655V28.2199C1.83203 28.9934 2.13932 29.7353 2.6863 30.2823C3.23328 30.8293 3.97515 31.1365 4.7487 31.1365H22.2487C23.0222 31.1365 23.7641 30.8293 24.3111 30.2823C24.8581 29.7353 25.1654 28.9934 25.1654 28.2199V10.7199M16.4154 1.96988L25.1654 10.7199M16.4154 1.96988V10.7199H25.1654M19.332 18.0115H7.66536M19.332 23.8449H7.66536M10.582 12.1782H7.66536" stroke="white" stroke-width="3.5" stroke-linecap="round" stroke-linejoin="round"/>
</svg>
