<svg width="32" height="33" viewBox="0 0 32 33" fill="none" xmlns="http://www.w3.org/2000/svg">
<path d="M18.1726 5.1574C18.1743 3.36687 14.5232 1.91663 10.0246 1.91663C5.52603 1.91663 1.87826 3.36849 1.875 5.1574M1.875 5.1574C1.875 6.94793 5.52277 8.39818 10.0246 8.39818C14.5265 8.39818 18.1743 6.94793 18.1743 5.1574L18.1743 17.7315M1.875 5.1574V24.6019C1.87663 26.3925 5.5244 27.8427 10.0246 27.8427C12.2071 27.8427 14.1777 27.4976 15.6397 26.9418M1.87663 11.6389C1.87663 13.4295 5.52441 14.8797 10.0263 14.8797C14.5281 14.8797 18.1759 13.4295 18.1759 11.6389M15.7375 20.4296C14.2673 21.0049 12.2511 21.3613 10.0246 21.3613C5.5244 21.3613 1.87663 19.9111 1.87663 18.1206M27.4355 18.6359C30.2993 21.4829 30.2993 26.101 27.4355 28.948C24.5717 31.795 19.9264 31.795 17.0627 28.948C14.1989 26.101 14.1989 21.4829 17.0627 18.6359C19.9264 15.7889 24.5717 15.7889 27.4355 18.6359Z" stroke="white" stroke-width="3.5" stroke-linecap="round" stroke-linejoin="round"/>
</svg>
