<svg width="794" height="591" viewBox="0 0 794 591" fill="none" xmlns="http://www.w3.org/2000/svg">
<g clip-path="url(#clip0_247_24312)">
<rect x="0.5" width="360" height="261" rx="10" fill="white"/>
<rect x="0.5" width="360" height="268" rx="5" fill="url(#paint0_linear_247_24312)"/>
<ellipse opacity="0.1" cx="49.1966" cy="322.185" rx="245.984" ry="173.185" fill="black"/>
<ellipse opacity="0.08" cx="308.984" cy="-44.4456" rx="245.984" ry="173.185" fill="black"/>
<rect x="82.5" y="68.5" width="195" height="37" rx="8" fill="white"/>
<path d="M234.5 68.5H269.5C273.918 68.5 277.5 72.0817 277.5 76.5V97.5C277.5 101.918 273.918 105.5 269.5 105.5H234.5V68.5Z" fill="#FF0079"/>
<path d="M250.145 82.5L255.5 87.8433L260.855 82.5L262.5 84.145L255.5 91.145L248.5 84.145L250.145 82.5Z" fill="white"/>
<path d="M103.5 85.5H220.5" stroke="#D1D1D6" stroke-width="4" stroke-linecap="round"/>
<g filter="url(#filter0_d_247_24312)">
<g clip-path="url(#clip1_247_24312)">
<path d="M82.5 120.5C82.5 114.977 86.9772 110.5 92.5 110.5H267.5C273.023 110.5 277.5 114.977 277.5 120.5V205.5C277.5 211.023 273.023 215.5 267.5 215.5H92.5C86.9772 215.5 82.5 211.023 82.5 205.5V120.5Z" fill="white"/>
<g clip-path="url(#clip2_247_24312)">
<rect x="82.5" y="110.5" width="195" height="105" rx="10" fill="white"/>
<rect x="82.5" y="110.5" width="195" height="35" fill="white"/>
<rect x="82.5" y="145.5" width="195" height="35" fill="#F7F7F7"/>
<rect x="82.5" y="180.5" width="195" height="35" fill="white"/>
<path d="M103.5 130.5H223.5" stroke="#D1D1D6" stroke-width="4" stroke-linecap="round"/>
<path d="M103.5 164.5H203.5" stroke="#D1D1D6" stroke-width="4" stroke-linecap="round"/>
<path d="M103.5 196.5H243.5" stroke="#D1D1D6" stroke-width="4" stroke-linecap="round"/>
</g>
</g>
</g>
</g>
<g clip-path="url(#clip3_247_24312)">
<rect x="433.5" width="360" height="261" rx="10" fill="white"/>
<rect width="360" height="268" rx="5" transform="matrix(-1 0 0 1 793.5 -0.5)" fill="url(#paint1_linear_247_24312)"/>
<ellipse opacity="0.1" cx="482.197" cy="322.185" rx="245.984" ry="173.185" fill="black"/>
<ellipse opacity="0.08" cx="741.984" cy="-44.4456" rx="245.984" ry="173.185" fill="black"/>
<g filter="url(#filter1_d_247_24312)">
<rect x="507.5" y="99.5" width="212" height="68" rx="10" fill="white" shape-rendering="crispEdges"/>
<rect x="531.5" y="119" width="28" height="29" rx="5.5" stroke="#CECDCD"/>
<path d="M543.54 130V128.752H546.036V137.5H544.656V130H543.54Z" fill="#CECDCD"/>
<rect x="566.5" y="119" width="30" height="29" rx="5.5" stroke="#FF0079"/>
<path d="M579.476 135.64C580.244 134.976 580.848 134.432 581.288 134.008C581.736 133.576 582.108 133.128 582.404 132.664C582.7 132.2 582.848 131.736 582.848 131.272C582.848 130.792 582.732 130.416 582.5 130.144C582.276 129.872 581.92 129.736 581.432 129.736C580.96 129.736 580.592 129.888 580.328 130.192C580.072 130.488 579.936 130.888 579.92 131.392H578.6C578.624 130.48 578.896 129.784 579.416 129.304C579.944 128.816 580.612 128.572 581.42 128.572C582.292 128.572 582.972 128.812 583.46 129.292C583.956 129.772 584.204 130.412 584.204 131.212C584.204 131.788 584.056 132.344 583.76 132.88C583.472 133.408 583.124 133.884 582.716 134.308C582.316 134.724 581.804 135.208 581.18 135.76L580.64 136.24H584.444V137.38H578.612V136.384L579.476 135.64Z" fill="#FF0079"/>
<rect x="603.5" y="119" width="31" height="29" rx="5.5" stroke="#CECDCD"/>
<path d="M615.696 130.912C615.744 130.168 616.028 129.588 616.548 129.172C617.076 128.756 617.748 128.548 618.564 128.548C619.124 128.548 619.608 128.648 620.016 128.848C620.424 129.048 620.732 129.32 620.94 129.664C621.148 130.008 621.252 130.396 621.252 130.828C621.252 131.324 621.12 131.748 620.856 132.1C620.592 132.452 620.276 132.688 619.908 132.808V132.856C620.38 133 620.748 133.264 621.012 133.648C621.276 134.024 621.408 134.508 621.408 135.1C621.408 135.572 621.3 135.992 621.084 136.36C620.868 136.728 620.548 137.02 620.124 137.236C619.7 137.444 619.192 137.548 618.6 137.548C617.736 137.548 617.024 137.328 616.464 136.888C615.912 136.44 615.616 135.8 615.576 134.968H616.896C616.928 135.392 617.092 135.74 617.388 136.012C617.684 136.276 618.084 136.408 618.588 136.408C619.076 136.408 619.452 136.276 619.716 136.012C619.98 135.74 620.112 135.392 620.112 134.968C620.112 134.408 619.932 134.012 619.572 133.78C619.22 133.54 618.676 133.42 617.94 133.42H617.628V132.292H617.952C618.6 132.284 619.092 132.176 619.428 131.968C619.772 131.76 619.944 131.432 619.944 130.984C619.944 130.6 619.82 130.296 619.572 130.072C619.324 129.84 618.972 129.724 618.516 129.724C618.068 129.724 617.72 129.84 617.472 130.072C617.224 130.296 617.076 130.576 617.028 130.912H615.696Z" fill="#CECDCD"/>
<rect x="641.5" y="119" width="54" height="29" rx="5.5" stroke="#CECDCD"/>
<path d="M662.684 129.16V137.5H661.316V131.788L658.772 137.5H657.824L655.268 131.788V137.5H653.9V129.16H655.376L658.304 135.7L661.22 129.16H662.684ZM667.35 137.608C666.726 137.608 666.162 137.468 665.658 137.188C665.154 136.9 664.758 136.5 664.47 135.988C664.182 135.468 664.038 134.868 664.038 134.188C664.038 133.516 664.186 132.92 664.482 132.4C664.778 131.88 665.182 131.48 665.694 131.2C666.206 130.92 666.778 130.78 667.41 130.78C668.042 130.78 668.614 130.92 669.126 131.2C669.638 131.48 670.042 131.88 670.338 132.4C670.634 132.92 670.782 133.516 670.782 134.188C670.782 134.86 670.63 135.456 670.326 135.976C670.022 136.496 669.606 136.9 669.078 137.188C668.558 137.468 667.982 137.608 667.35 137.608ZM667.35 136.42C667.702 136.42 668.03 136.336 668.334 136.168C668.646 136 668.898 135.748 669.09 135.412C669.282 135.076 669.378 134.668 669.378 134.188C669.378 133.708 669.286 133.304 669.102 132.976C668.918 132.64 668.674 132.388 668.37 132.22C668.066 132.052 667.738 131.968 667.386 131.968C667.034 131.968 666.706 132.052 666.402 132.22C666.106 132.388 665.87 132.64 665.694 132.976C665.518 133.304 665.43 133.708 665.43 134.188C665.43 134.9 665.61 135.452 665.97 135.844C666.338 136.228 666.798 136.42 667.35 136.42ZM673.502 131.848C673.702 131.512 673.966 131.252 674.294 131.068C674.63 130.876 675.026 130.78 675.482 130.78V132.196H675.134C674.598 132.196 674.19 132.332 673.91 132.604C673.638 132.876 673.502 133.348 673.502 134.02V137.5H672.134V130.888H673.502V131.848ZM682.8 134.032C682.8 134.28 682.784 134.504 682.752 134.704H677.7C677.74 135.232 677.936 135.656 678.288 135.976C678.64 136.296 679.072 136.456 679.584 136.456C680.32 136.456 680.84 136.148 681.144 135.532H682.62C682.42 136.14 682.056 136.64 681.528 137.032C681.008 137.416 680.36 137.608 679.584 137.608C678.952 137.608 678.384 137.468 677.88 137.188C677.384 136.9 676.992 136.5 676.704 135.988C676.424 135.468 676.284 134.868 676.284 134.188C676.284 133.508 676.42 132.912 676.692 132.4C676.972 131.88 677.36 131.48 677.856 131.2C678.36 130.92 678.936 130.78 679.584 130.78C680.208 130.78 680.764 130.916 681.252 131.188C681.74 131.46 682.12 131.844 682.392 132.34C682.664 132.828 682.8 133.392 682.8 134.032ZM681.372 133.6C681.364 133.096 681.184 132.692 680.832 132.388C680.48 132.084 680.044 131.932 679.524 131.932C679.052 131.932 678.648 132.084 678.312 132.388C677.976 132.684 677.776 133.088 677.712 133.6H681.372Z" fill="#CECDCD"/>
</g>
</g>
<g clip-path="url(#clip4_247_24312)">
<rect x="0.5" y="330" width="360" height="261" rx="10" fill="white"/>
<rect x="0.5" y="330" width="360" height="268" rx="5" fill="url(#paint2_linear_247_24312)"/>
<ellipse opacity="0.1" cx="49.1966" cy="652.185" rx="245.984" ry="173.185" fill="black"/>
<ellipse opacity="0.08" cx="308.984" cy="285.554" rx="245.984" ry="173.185" fill="black"/>
<rect x="63" y="399" width="234" height="130" rx="8" fill="white"/>
<g filter="url(#filter2_d_247_24312)">
<g clip-path="url(#clip5_247_24312)">
<rect x="103.5" y="424" width="16" height="16" rx="8" fill="white"/>
<circle cx="111.5" cy="432" r="7.5" stroke="#FF0079"/>
<circle cx="111.5" cy="432" r="4" fill="#FF0079"/>
</g>
</g>
<line x1="129.5" y1="427" x2="256.5" y2="427" stroke="#D3D3D3" stroke-width="2"/>
<line x1="129.5" y1="437" x2="181.5" y2="437" stroke="#D3D3D3" stroke-width="2"/>
<g filter="url(#filter3_d_247_24312)">
<g clip-path="url(#clip6_247_24312)">
<rect x="103.5" y="456" width="16" height="16" rx="8" fill="white"/>
</g>
<rect x="104" y="456.5" width="15" height="15" rx="7.5" stroke="#D5DAE1"/>
</g>
<line x1="129.5" y1="459" x2="256.5" y2="459" stroke="#D3D3D3" stroke-width="2"/>
<line x1="129.5" y1="469" x2="181.5" y2="469" stroke="#D3D3D3" stroke-width="2"/>
<g filter="url(#filter4_d_247_24312)">
<g clip-path="url(#clip7_247_24312)">
<rect x="103.5" y="488" width="16" height="16" rx="8" fill="white"/>
</g>
<rect x="104" y="488.5" width="15" height="15" rx="7.5" stroke="#D5DAE1"/>
</g>
<line x1="129.5" y1="491" x2="256.5" y2="491" stroke="#D3D3D3" stroke-width="2"/>
<line x1="129.5" y1="501" x2="181.5" y2="501" stroke="#D3D3D3" stroke-width="2"/>
</g>
<g clip-path="url(#clip8_247_24312)">
<rect x="433.5" y="330" width="360" height="261" rx="10" fill="white"/>
<rect width="360" height="268" rx="5" transform="matrix(-1 0 0 1 793.5 330)" fill="url(#paint3_linear_247_24312)"/>
<ellipse opacity="0.1" cx="482.197" cy="652.185" rx="245.984" ry="173.185" fill="black"/>
<ellipse opacity="0.08" cx="741.984" cy="285.554" rx="245.984" ry="173.185" fill="black"/>
<rect x="495.5" y="399" width="234" height="130" rx="8" fill="white"/>
<g filter="url(#filter5_d_247_24312)">
<g clip-path="url(#clip9_247_24312)">
<rect x="536" y="418" width="20" height="20" rx="5" fill="#FF0079"/>
<path d="M551.592 424.008C551.514 423.93 551.422 423.868 551.321 423.826C551.219 423.784 551.11 423.762 551 423.762C550.89 423.762 550.781 423.784 550.68 423.826C550.578 423.868 550.486 423.93 550.408 424.008L544.2 430.225L541.592 427.608C541.511 427.531 541.416 427.47 541.312 427.429C541.208 427.388 541.097 427.367 540.985 427.369C540.873 427.371 540.763 427.395 540.661 427.44C540.558 427.484 540.465 427.549 540.388 427.629C540.31 427.71 540.249 427.805 540.208 427.909C540.167 428.013 540.147 428.124 540.149 428.236C540.15 428.347 540.174 428.458 540.219 428.56C540.264 428.663 540.328 428.756 540.408 428.833L543.608 432.033C543.686 432.111 543.778 432.173 543.88 432.216C543.981 432.258 544.09 432.28 544.2 432.28C544.31 432.28 544.419 432.258 544.521 432.216C544.622 432.173 544.714 432.111 544.792 432.033L551.592 425.233C551.676 425.155 551.744 425.061 551.79 424.955C551.836 424.85 551.86 424.736 551.86 424.621C551.86 424.506 551.836 424.392 551.79 424.287C551.744 424.181 551.676 424.086 551.592 424.008Z" fill="white"/>
</g>
<rect x="536.625" y="418.625" width="18.75" height="18.75" rx="4.375" stroke="#FF0079" stroke-width="1.25"/>
</g>
<line x1="562.5" y1="421" x2="689.5" y2="421" stroke="#D3D3D3" stroke-width="2"/>
<line x1="562.5" y1="431" x2="614.5" y2="431" stroke="#D3D3D3" stroke-width="2"/>
<g filter="url(#filter6_d_247_24312)">
<rect x="536" y="454" width="20" height="20" rx="5" fill="white"/>
<rect x="536.625" y="454.625" width="18.75" height="18.75" rx="4.375" stroke="#D5DAE1" stroke-width="1.25"/>
</g>
<line x1="562.5" y1="457" x2="689.5" y2="457" stroke="#D3D3D3" stroke-width="2"/>
<line x1="562.5" y1="467" x2="614.5" y2="467" stroke="#D3D3D3" stroke-width="2"/>
<g filter="url(#filter7_d_247_24312)">
<g clip-path="url(#clip10_247_24312)">
<rect x="536" y="490" width="20" height="20" rx="5" fill="#FF0079"/>
<path d="M551.592 496.008C551.514 495.93 551.422 495.868 551.321 495.826C551.219 495.784 551.11 495.762 551 495.762C550.89 495.762 550.781 495.784 550.68 495.826C550.578 495.868 550.486 495.93 550.408 496.008L544.2 502.225L541.592 499.608C541.511 499.531 541.416 499.47 541.312 499.429C541.208 499.388 541.097 499.367 540.985 499.369C540.873 499.371 540.763 499.395 540.661 499.44C540.558 499.484 540.465 499.549 540.388 499.629C540.31 499.71 540.249 499.805 540.208 499.909C540.167 500.013 540.147 500.124 540.149 500.236C540.15 500.347 540.174 500.458 540.219 500.56C540.264 500.663 540.328 500.756 540.408 500.833L543.608 504.033C543.686 504.111 543.778 504.173 543.88 504.216C543.981 504.258 544.09 504.28 544.2 504.28C544.31 504.28 544.419 504.258 544.521 504.216C544.622 504.173 544.714 504.111 544.792 504.033L551.592 497.233C551.676 497.155 551.744 497.061 551.79 496.955C551.836 496.85 551.86 496.736 551.86 496.621C551.86 496.506 551.836 496.392 551.79 496.287C551.744 496.181 551.676 496.086 551.592 496.008Z" fill="white"/>
</g>
<rect x="536.625" y="490.625" width="18.75" height="18.75" rx="4.375" stroke="#FF0079" stroke-width="1.25"/>
</g>
<line x1="562.5" y1="493" x2="689.5" y2="493" stroke="#D3D3D3" stroke-width="2"/>
<line x1="562.5" y1="503" x2="614.5" y2="503" stroke="#D3D3D3" stroke-width="2"/>
</g>
<g filter="url(#filter8_d_247_24312)">
<rect x="185" y="224" width="424" height="124" rx="20" fill="white" shape-rendering="crispEdges"/>
<rect x="225.5" y="269" width="343" height="34" rx="17" fill="white"/>
<rect x="225.5" y="269" width="343" height="34" rx="17" stroke="#FF0079"/>
<path d="M255 294L250.803 289.803M253 284.5C253 280.358 249.642 277 245.5 277C241.358 277 238 280.358 238 284.5C238 288.642 241.358 292 245.5 292C249.642 292 253 288.642 253 284.5Z" stroke="#FF0079" stroke-width="1.5" stroke-linecap="round" stroke-linejoin="round"/>
<path d="M269.83 283.955C269.778 283.523 269.571 283.188 269.207 282.949C268.844 282.71 268.398 282.591 267.869 282.591C267.483 282.591 267.145 282.653 266.855 282.778C266.568 282.903 266.344 283.075 266.182 283.294C266.023 283.513 265.943 283.761 265.943 284.04C265.943 284.273 265.999 284.473 266.109 284.641C266.223 284.805 266.368 284.943 266.544 285.054C266.72 285.162 266.905 285.251 267.098 285.322C267.291 285.391 267.469 285.446 267.631 285.489L268.517 285.727C268.744 285.787 268.997 285.869 269.276 285.974C269.557 286.08 269.825 286.223 270.081 286.405C270.339 286.584 270.553 286.814 270.72 287.095C270.888 287.376 270.972 287.722 270.972 288.131C270.972 288.602 270.848 289.028 270.601 289.409C270.357 289.79 269.999 290.092 269.527 290.317C269.058 290.541 268.489 290.653 267.818 290.653C267.193 290.653 266.652 290.553 266.195 290.351C265.74 290.149 265.382 289.868 265.121 289.507C264.862 289.146 264.716 288.727 264.682 288.25H265.773C265.801 288.58 265.912 288.852 266.105 289.068C266.301 289.281 266.548 289.44 266.847 289.545C267.148 289.648 267.472 289.699 267.818 289.699C268.222 289.699 268.584 289.634 268.905 289.503C269.226 289.369 269.48 289.185 269.668 288.949C269.855 288.71 269.949 288.432 269.949 288.114C269.949 287.824 269.868 287.588 269.706 287.406C269.544 287.224 269.331 287.077 269.067 286.963C268.803 286.849 268.517 286.75 268.21 286.665L267.136 286.358C266.455 286.162 265.915 285.882 265.517 285.518C265.119 285.155 264.92 284.679 264.92 284.091C264.92 283.602 265.053 283.176 265.317 282.812C265.584 282.446 265.942 282.162 266.391 281.96C266.842 281.756 267.347 281.653 267.903 281.653C268.466 281.653 268.966 281.754 269.403 281.956C269.841 282.155 270.188 282.428 270.443 282.774C270.702 283.121 270.838 283.514 270.852 283.955H269.83ZM275.077 290.636C274.446 290.636 273.902 290.497 273.445 290.219C272.99 289.938 272.64 289.545 272.392 289.043C272.148 288.537 272.026 287.949 272.026 287.278C272.026 286.608 272.148 286.017 272.392 285.506C272.64 284.991 272.983 284.591 273.424 284.304C273.867 284.014 274.384 283.869 274.975 283.869C275.316 283.869 275.652 283.926 275.985 284.04C276.317 284.153 276.62 284.338 276.892 284.594C277.165 284.847 277.383 285.182 277.544 285.599C277.706 286.017 277.787 286.531 277.787 287.142V287.568H272.742V286.699H276.765C276.765 286.33 276.691 286 276.543 285.71C276.398 285.42 276.191 285.192 275.921 285.024C275.654 284.857 275.338 284.773 274.975 284.773C274.574 284.773 274.228 284.872 273.935 285.071C273.645 285.267 273.422 285.523 273.266 285.838C273.11 286.153 273.032 286.491 273.032 286.852V287.432C273.032 287.926 273.117 288.345 273.287 288.689C273.461 289.03 273.701 289.29 274.008 289.469C274.314 289.645 274.671 289.733 275.077 289.733C275.341 289.733 275.58 289.696 275.793 289.622C276.009 289.545 276.195 289.432 276.351 289.281C276.508 289.128 276.628 288.937 276.713 288.71L277.685 288.983C277.583 289.312 277.411 289.602 277.169 289.852C276.928 290.099 276.63 290.293 276.275 290.432C275.919 290.568 275.52 290.636 275.077 290.636ZM281.003 290.653C280.589 290.653 280.212 290.575 279.874 290.419C279.536 290.26 279.268 290.031 279.069 289.733C278.87 289.432 278.77 289.068 278.77 288.642C278.77 288.267 278.844 287.963 278.992 287.73C279.14 287.494 279.337 287.31 279.584 287.176C279.831 287.043 280.104 286.943 280.402 286.878C280.704 286.81 281.006 286.756 281.31 286.716C281.708 286.665 282.03 286.626 282.277 286.601C282.527 286.572 282.709 286.526 282.823 286.46C282.939 286.395 282.998 286.281 282.998 286.119V286.085C282.998 285.665 282.883 285.338 282.652 285.105C282.425 284.872 282.08 284.756 281.617 284.756C281.137 284.756 280.76 284.861 280.488 285.071C280.215 285.281 280.023 285.506 279.912 285.744L278.958 285.403C279.128 285.006 279.356 284.696 279.64 284.474C279.927 284.25 280.239 284.094 280.577 284.006C280.918 283.915 281.253 283.869 281.583 283.869C281.793 283.869 282.035 283.895 282.307 283.946C282.583 283.994 282.848 284.095 283.104 284.249C283.363 284.402 283.577 284.634 283.748 284.943C283.918 285.253 284.003 285.668 284.003 286.188V290.5H282.998V289.614H282.946C282.878 289.756 282.765 289.908 282.606 290.07C282.446 290.232 282.235 290.369 281.971 290.483C281.706 290.597 281.384 290.653 281.003 290.653ZM281.157 289.75C281.554 289.75 281.89 289.672 282.162 289.516C282.438 289.359 282.645 289.158 282.785 288.911C282.927 288.663 282.998 288.403 282.998 288.131V287.21C282.955 287.261 282.861 287.308 282.716 287.351C282.574 287.391 282.41 287.426 282.222 287.457C282.037 287.486 281.857 287.511 281.681 287.534C281.508 287.554 281.367 287.571 281.259 287.585C280.998 287.619 280.753 287.675 280.526 287.751C280.302 287.825 280.12 287.937 279.981 288.088C279.844 288.236 279.776 288.437 279.776 288.693C279.776 289.043 279.905 289.307 280.164 289.486C280.425 289.662 280.756 289.75 281.157 289.75ZM285.599 290.5V283.955H286.57V284.943H286.639C286.758 284.619 286.974 284.357 287.286 284.155C287.599 283.953 287.951 283.852 288.343 283.852C288.417 283.852 288.509 283.854 288.62 283.857C288.731 283.859 288.815 283.864 288.872 283.869V284.892C288.838 284.884 288.759 284.871 288.637 284.854C288.518 284.834 288.392 284.824 288.258 284.824C287.94 284.824 287.656 284.891 287.406 285.024C287.159 285.155 286.963 285.337 286.818 285.57C286.676 285.8 286.605 286.062 286.605 286.358V290.5H285.599ZM292.284 290.636C291.67 290.636 291.142 290.491 290.698 290.202C290.255 289.912 289.914 289.513 289.676 289.004C289.437 288.496 289.318 287.915 289.318 287.261C289.318 286.597 289.44 286.01 289.684 285.501C289.931 284.99 290.275 284.591 290.715 284.304C291.159 284.014 291.676 283.869 292.267 283.869C292.727 283.869 293.142 283.955 293.511 284.125C293.88 284.295 294.183 284.534 294.419 284.841C294.654 285.148 294.801 285.506 294.857 285.915H293.852C293.775 285.616 293.605 285.352 293.34 285.122C293.079 284.889 292.727 284.773 292.284 284.773C291.892 284.773 291.548 284.875 291.252 285.08C290.96 285.281 290.731 285.567 290.566 285.936C290.404 286.303 290.323 286.733 290.323 287.227C290.323 287.733 290.403 288.173 290.562 288.548C290.724 288.923 290.951 289.214 291.244 289.422C291.539 289.629 291.886 289.733 292.284 289.733C292.545 289.733 292.782 289.688 292.995 289.597C293.208 289.506 293.389 289.375 293.536 289.205C293.684 289.034 293.789 288.83 293.852 288.591H294.857C294.801 288.977 294.66 289.325 294.436 289.635C294.214 289.942 293.92 290.186 293.553 290.368C293.19 290.547 292.767 290.636 292.284 290.636ZM297.093 286.562V290.5H296.088V281.773H297.093V284.977H297.179C297.332 284.639 297.562 284.371 297.869 284.172C298.179 283.97 298.59 283.869 299.105 283.869C299.551 283.869 299.941 283.959 300.277 284.138C300.612 284.314 300.872 284.585 301.056 284.952C301.244 285.315 301.338 285.778 301.338 286.341V290.5H300.332V286.409C300.332 285.889 300.197 285.487 299.927 285.203C299.66 284.916 299.289 284.773 298.815 284.773C298.485 284.773 298.19 284.842 297.929 284.982C297.67 285.121 297.465 285.324 297.315 285.591C297.167 285.858 297.093 286.182 297.093 286.562ZM308.732 290.636C308.141 290.636 307.622 290.496 307.176 290.214C306.733 289.933 306.386 289.54 306.136 289.034C305.889 288.528 305.766 287.937 305.766 287.261C305.766 286.58 305.889 285.984 306.136 285.476C306.386 284.967 306.733 284.572 307.176 284.291C307.622 284.01 308.141 283.869 308.732 283.869C309.322 283.869 309.84 284.01 310.283 284.291C310.729 284.572 311.075 284.967 311.322 285.476C311.572 285.984 311.697 286.58 311.697 287.261C311.697 287.937 311.572 288.528 311.322 289.034C311.075 289.54 310.729 289.933 310.283 290.214C309.84 290.496 309.322 290.636 308.732 290.636ZM308.732 289.733C309.18 289.733 309.55 289.618 309.84 289.388C310.129 289.158 310.344 288.855 310.483 288.48C310.622 288.105 310.692 287.699 310.692 287.261C310.692 286.824 310.622 286.416 310.483 286.038C310.344 285.661 310.129 285.355 309.84 285.122C309.55 284.889 309.18 284.773 308.732 284.773C308.283 284.773 307.913 284.889 307.624 285.122C307.334 285.355 307.119 285.661 306.98 286.038C306.841 286.416 306.771 286.824 306.771 287.261C306.771 287.699 306.841 288.105 306.98 288.48C307.119 288.855 307.334 289.158 307.624 289.388C307.913 289.618 308.283 289.733 308.732 289.733ZM313.998 286.562V290.5H312.993V283.955H313.964V284.977H314.049C314.203 284.645 314.436 284.378 314.748 284.176C315.061 283.972 315.464 283.869 315.959 283.869C316.402 283.869 316.79 283.96 317.122 284.142C317.454 284.321 317.713 284.594 317.897 284.96C318.082 285.324 318.174 285.784 318.174 286.341V290.5H317.169V286.409C317.169 285.895 317.035 285.494 316.768 285.207C316.501 284.918 316.135 284.773 315.669 284.773C315.348 284.773 315.061 284.842 314.808 284.982C314.558 285.121 314.361 285.324 314.216 285.591C314.071 285.858 313.998 286.182 313.998 286.562ZM323.555 292.955C323.384 292.955 323.232 292.94 323.099 292.912C322.965 292.886 322.873 292.861 322.822 292.835L323.078 291.949C323.322 292.011 323.538 292.034 323.725 292.017C323.913 292 324.079 291.916 324.224 291.766C324.372 291.618 324.507 291.378 324.629 291.045L324.816 290.534L322.396 283.955H323.487L325.294 289.17H325.362L327.169 283.955H328.259L325.481 291.455C325.356 291.793 325.201 292.072 325.017 292.294C324.832 292.518 324.617 292.685 324.373 292.793C324.132 292.901 323.859 292.955 323.555 292.955ZM331.772 290.636C331.181 290.636 330.662 290.496 330.216 290.214C329.773 289.933 329.426 289.54 329.176 289.034C328.929 288.528 328.806 287.937 328.806 287.261C328.806 286.58 328.929 285.984 329.176 285.476C329.426 284.967 329.773 284.572 330.216 284.291C330.662 284.01 331.181 283.869 331.772 283.869C332.362 283.869 332.88 284.01 333.323 284.291C333.769 284.572 334.115 284.967 334.362 285.476C334.612 285.984 334.737 286.58 334.737 287.261C334.737 287.937 334.612 288.528 334.362 289.034C334.115 289.54 333.769 289.933 333.323 290.214C332.88 290.496 332.362 290.636 331.772 290.636ZM331.772 289.733C332.22 289.733 332.59 289.618 332.88 289.388C333.169 289.158 333.384 288.855 333.523 288.48C333.662 288.105 333.732 287.699 333.732 287.261C333.732 286.824 333.662 286.416 333.523 286.038C333.384 285.661 333.169 285.355 332.88 285.122C332.59 284.889 332.22 284.773 331.772 284.773C331.323 284.773 330.953 284.889 330.664 285.122C330.374 285.355 330.159 285.661 330.02 286.038C329.881 286.416 329.811 286.824 329.811 287.261C329.811 287.699 329.881 288.105 330.02 288.48C330.159 288.855 330.374 289.158 330.664 289.388C330.953 289.618 331.323 289.733 331.772 289.733ZM340.158 287.824V283.955H341.163V290.5H340.158V289.392H340.089C339.936 289.724 339.697 290.007 339.374 290.24C339.05 290.47 338.641 290.585 338.146 290.585C337.737 290.585 337.374 290.496 337.055 290.317C336.737 290.135 336.487 289.862 336.305 289.499C336.124 289.132 336.033 288.67 336.033 288.114V283.955H337.038V288.045C337.038 288.523 337.172 288.903 337.439 289.188C337.709 289.472 338.053 289.614 338.47 289.614C338.72 289.614 338.974 289.55 339.233 289.422C339.494 289.294 339.713 289.098 339.889 288.834C340.068 288.57 340.158 288.233 340.158 287.824ZM342.765 290.5V283.955H343.737V284.943H343.805C343.924 284.619 344.14 284.357 344.453 284.155C344.765 283.953 345.118 283.852 345.51 283.852C345.583 283.852 345.676 283.854 345.787 283.857C345.897 283.859 345.981 283.864 346.038 283.869V284.892C346.004 284.884 345.926 284.871 345.804 284.854C345.684 284.834 345.558 284.824 345.424 284.824C345.106 284.824 344.822 284.891 344.572 285.024C344.325 285.155 344.129 285.337 343.984 285.57C343.842 285.8 343.771 286.062 343.771 286.358V290.5H342.765ZM350.125 290.5V283.955H351.097V284.943H351.165C351.284 284.619 351.5 284.357 351.813 284.155C352.125 283.953 352.477 283.852 352.869 283.852C352.943 283.852 353.036 283.854 353.146 283.857C353.257 283.859 353.341 283.864 353.398 283.869V284.892C353.364 284.884 353.286 284.871 353.163 284.854C353.044 284.834 352.918 284.824 352.784 284.824C352.466 284.824 352.182 284.891 351.932 285.024C351.685 285.155 351.489 285.337 351.344 285.57C351.202 285.8 351.131 286.062 351.131 286.358V290.5H350.125ZM356.895 290.636C356.264 290.636 355.72 290.497 355.263 290.219C354.808 289.938 354.458 289.545 354.21 289.043C353.966 288.537 353.844 287.949 353.844 287.278C353.844 286.608 353.966 286.017 354.21 285.506C354.458 284.991 354.801 284.591 355.242 284.304C355.685 284.014 356.202 283.869 356.793 283.869C357.134 283.869 357.47 283.926 357.803 284.04C358.135 284.153 358.438 284.338 358.71 284.594C358.983 284.847 359.2 285.182 359.362 285.599C359.524 286.017 359.605 286.531 359.605 287.142V287.568H354.56V286.699H358.583C358.583 286.33 358.509 286 358.361 285.71C358.216 285.42 358.009 285.192 357.739 285.024C357.472 284.857 357.156 284.773 356.793 284.773C356.392 284.773 356.046 284.872 355.753 285.071C355.463 285.267 355.24 285.523 355.084 285.838C354.928 286.153 354.85 286.491 354.85 286.852V287.432C354.85 287.926 354.935 288.345 355.105 288.689C355.279 289.03 355.519 289.29 355.825 289.469C356.132 289.645 356.489 289.733 356.895 289.733C357.159 289.733 357.398 289.696 357.611 289.622C357.827 289.545 358.013 289.432 358.169 289.281C358.325 289.128 358.446 288.937 358.531 288.71L359.503 288.983C359.401 289.312 359.229 289.602 358.987 289.852C358.746 290.099 358.448 290.293 358.093 290.432C357.737 290.568 357.338 290.636 356.895 290.636ZM362.821 290.653C362.407 290.653 362.03 290.575 361.692 290.419C361.354 290.26 361.085 290.031 360.887 289.733C360.688 289.432 360.588 289.068 360.588 288.642C360.588 288.267 360.662 287.963 360.81 287.73C360.958 287.494 361.155 287.31 361.402 287.176C361.649 287.043 361.922 286.943 362.22 286.878C362.522 286.81 362.824 286.756 363.128 286.716C363.526 286.665 363.848 286.626 364.095 286.601C364.345 286.572 364.527 286.526 364.641 286.46C364.757 286.395 364.816 286.281 364.816 286.119V286.085C364.816 285.665 364.701 285.338 364.47 285.105C364.243 284.872 363.898 284.756 363.435 284.756C362.955 284.756 362.578 284.861 362.306 285.071C362.033 285.281 361.841 285.506 361.73 285.744L360.776 285.403C360.946 285.006 361.174 284.696 361.458 284.474C361.745 284.25 362.057 284.094 362.395 284.006C362.736 283.915 363.071 283.869 363.401 283.869C363.611 283.869 363.853 283.895 364.125 283.946C364.401 283.994 364.666 284.095 364.922 284.249C365.181 284.402 365.395 284.634 365.566 284.943C365.736 285.253 365.821 285.668 365.821 286.188V290.5H364.816V289.614H364.764C364.696 289.756 364.583 289.908 364.424 290.07C364.264 290.232 364.053 290.369 363.789 290.483C363.524 290.597 363.202 290.653 362.821 290.653ZM362.975 289.75C363.372 289.75 363.708 289.672 363.98 289.516C364.256 289.359 364.463 289.158 364.603 288.911C364.745 288.663 364.816 288.403 364.816 288.131V287.21C364.773 287.261 364.679 287.308 364.534 287.351C364.392 287.391 364.228 287.426 364.04 287.457C363.855 287.486 363.675 287.511 363.499 287.534C363.326 287.554 363.185 287.571 363.077 287.585C362.816 287.619 362.571 287.675 362.344 287.751C362.12 287.825 361.938 287.937 361.799 288.088C361.662 288.236 361.594 288.437 361.594 288.693C361.594 289.043 361.723 289.307 361.982 289.486C362.243 289.662 362.574 289.75 362.975 289.75ZM368.423 281.773V290.5H367.417V281.773H368.423ZM377.796 285.42L376.892 285.676C376.836 285.526 376.752 285.379 376.641 285.237C376.533 285.092 376.385 284.973 376.198 284.879C376.01 284.786 375.77 284.739 375.478 284.739C375.077 284.739 374.743 284.831 374.476 285.016C374.212 285.197 374.08 285.429 374.08 285.71C374.08 285.96 374.171 286.158 374.353 286.303C374.535 286.447 374.819 286.568 375.205 286.665L376.177 286.903C376.762 287.045 377.198 287.263 377.485 287.555C377.772 287.845 377.915 288.219 377.915 288.676C377.915 289.051 377.807 289.386 377.591 289.682C377.378 289.977 377.08 290.21 376.696 290.381C376.313 290.551 375.867 290.636 375.358 290.636C374.691 290.636 374.138 290.491 373.701 290.202C373.263 289.912 372.986 289.489 372.87 288.932L373.824 288.693C373.915 289.045 374.087 289.31 374.34 289.486C374.596 289.662 374.929 289.75 375.341 289.75C375.81 289.75 376.182 289.651 376.458 289.452C376.736 289.25 376.875 289.009 376.875 288.727C376.875 288.5 376.796 288.31 376.637 288.156C376.478 288 376.233 287.884 375.904 287.807L374.813 287.551C374.213 287.409 373.773 287.189 373.492 286.891C373.213 286.589 373.074 286.213 373.074 285.761C373.074 285.392 373.178 285.065 373.385 284.781C373.596 284.497 373.881 284.274 374.242 284.112C374.606 283.95 375.017 283.869 375.478 283.869C376.125 283.869 376.634 284.011 377.003 284.295C377.375 284.58 377.64 284.955 377.796 285.42ZM382.036 283.955V284.807H378.644V283.955H382.036ZM379.632 282.386H380.638V288.625C380.638 288.909 380.679 289.122 380.761 289.264C380.847 289.403 380.955 289.497 381.085 289.545C381.219 289.591 381.36 289.614 381.507 289.614C381.618 289.614 381.709 289.608 381.78 289.597C381.851 289.582 381.908 289.571 381.95 289.562L382.155 290.466C382.087 290.491 381.992 290.517 381.869 290.543C381.747 290.571 381.592 290.585 381.405 290.585C381.121 290.585 380.842 290.524 380.57 290.402C380.3 290.28 380.075 290.094 379.896 289.844C379.72 289.594 379.632 289.278 379.632 288.898V282.386ZM385.235 290.653C384.82 290.653 384.443 290.575 384.105 290.419C383.767 290.26 383.499 290.031 383.3 289.733C383.101 289.432 383.002 289.068 383.002 288.642C383.002 288.267 383.075 287.963 383.223 287.73C383.371 287.494 383.568 287.31 383.816 287.176C384.063 287.043 384.335 286.943 384.634 286.878C384.935 286.81 385.237 286.756 385.541 286.716C385.939 286.665 386.262 286.626 386.509 286.601C386.759 286.572 386.941 286.526 387.054 286.46C387.171 286.395 387.229 286.281 387.229 286.119V286.085C387.229 285.665 387.114 285.338 386.884 285.105C386.656 284.872 386.311 284.756 385.848 284.756C385.368 284.756 384.992 284.861 384.719 285.071C384.446 285.281 384.254 285.506 384.144 285.744L383.189 285.403C383.36 285.006 383.587 284.696 383.871 284.474C384.158 284.25 384.47 284.094 384.808 284.006C385.149 283.915 385.485 283.869 385.814 283.869C386.024 283.869 386.266 283.895 386.539 283.946C386.814 283.994 387.08 284.095 387.335 284.249C387.594 284.402 387.808 284.634 387.979 284.943C388.149 285.253 388.235 285.668 388.235 286.188V290.5H387.229V289.614H387.178C387.11 289.756 386.996 289.908 386.837 290.07C386.678 290.232 386.466 290.369 386.202 290.483C385.938 290.597 385.615 290.653 385.235 290.653ZM385.388 289.75C385.786 289.75 386.121 289.672 386.394 289.516C386.669 289.359 386.877 289.158 387.016 288.911C387.158 288.663 387.229 288.403 387.229 288.131V287.21C387.186 287.261 387.093 287.308 386.948 287.351C386.806 287.391 386.641 287.426 386.453 287.457C386.269 287.486 386.088 287.511 385.912 287.534C385.739 287.554 385.598 287.571 385.49 287.585C385.229 287.619 384.985 287.675 384.757 287.751C384.533 287.825 384.351 287.937 384.212 288.088C384.075 288.236 384.007 288.437 384.007 288.693C384.007 289.043 384.137 289.307 384.395 289.486C384.656 289.662 384.987 289.75 385.388 289.75ZM392.677 283.955V284.807H389.285V283.955H392.677ZM390.273 282.386H391.279V288.625C391.279 288.909 391.32 289.122 391.403 289.264C391.488 289.403 391.596 289.497 391.726 289.545C391.86 289.591 392.001 289.614 392.148 289.614C392.259 289.614 392.35 289.608 392.421 289.597C392.492 289.582 392.549 289.571 392.592 289.562L392.796 290.466C392.728 290.491 392.633 290.517 392.511 290.543C392.388 290.571 392.234 290.585 392.046 290.585C391.762 290.585 391.484 290.524 391.211 290.402C390.941 290.28 390.717 290.094 390.538 289.844C390.361 289.594 390.273 289.278 390.273 288.898V282.386ZM396.624 290.636C395.993 290.636 395.449 290.497 394.991 290.219C394.537 289.938 394.186 289.545 393.939 289.043C393.695 288.537 393.572 287.949 393.572 287.278C393.572 286.608 393.695 286.017 393.939 285.506C394.186 284.991 394.53 284.591 394.97 284.304C395.413 284.014 395.93 283.869 396.521 283.869C396.862 283.869 397.199 283.926 397.531 284.04C397.864 284.153 398.166 284.338 398.439 284.594C398.712 284.847 398.929 285.182 399.091 285.599C399.253 286.017 399.334 286.531 399.334 287.142V287.568H394.288V286.699H398.311C398.311 286.33 398.237 286 398.089 285.71C397.945 285.42 397.737 285.192 397.467 285.024C397.2 284.857 396.885 284.773 396.521 284.773C396.121 284.773 395.774 284.872 395.481 285.071C395.192 285.267 394.969 285.523 394.812 285.838C394.656 286.153 394.578 286.491 394.578 286.852V287.432C394.578 287.926 394.663 288.345 394.834 288.689C395.007 289.03 395.247 289.29 395.554 289.469C395.861 289.645 396.217 289.733 396.624 289.733C396.888 289.733 397.126 289.696 397.339 289.622C397.555 289.545 397.741 289.432 397.898 289.281C398.054 289.128 398.175 288.937 398.26 288.71L399.231 288.983C399.129 289.312 398.957 289.602 398.716 289.852C398.474 290.099 398.176 290.293 397.821 290.432C397.466 290.568 397.067 290.636 396.624 290.636Z" fill="#FF0079"/>
</g>
<defs>
<filter id="filter0_d_247_24312" x="77" y="109" width="206" height="116" filterUnits="userSpaceOnUse" color-interpolation-filters="sRGB">
<feFlood flood-opacity="0" result="BackgroundImageFix"/>
<feColorMatrix in="SourceAlpha" type="matrix" values="0 0 0 0 0 0 0 0 0 0 0 0 0 0 0 0 0 0 127 0" result="hardAlpha"/>
<feOffset dy="4"/>
<feGaussianBlur stdDeviation="2.75"/>
<feComposite in2="hardAlpha" operator="out"/>
<feColorMatrix type="matrix" values="0 0 0 0 0 0 0 0 0 0 0 0 0 0 0 0 0 0 0.09 0"/>
<feBlend mode="normal" in2="BackgroundImageFix" result="effect1_dropShadow_247_24312"/>
<feBlend mode="normal" in="SourceGraphic" in2="effect1_dropShadow_247_24312" result="shape"/>
</filter>
<filter id="filter1_d_247_24312" x="502" y="98" width="223" height="79" filterUnits="userSpaceOnUse" color-interpolation-filters="sRGB">
<feFlood flood-opacity="0" result="BackgroundImageFix"/>
<feColorMatrix in="SourceAlpha" type="matrix" values="0 0 0 0 0 0 0 0 0 0 0 0 0 0 0 0 0 0 127 0" result="hardAlpha"/>
<feOffset dy="4"/>
<feGaussianBlur stdDeviation="2.75"/>
<feComposite in2="hardAlpha" operator="out"/>
<feColorMatrix type="matrix" values="0 0 0 0 0 0 0 0 0 0 0 0 0 0 0 0 0 0 0.09 0"/>
<feBlend mode="normal" in2="BackgroundImageFix" result="effect1_dropShadow_247_24312"/>
<feBlend mode="normal" in="SourceGraphic" in2="effect1_dropShadow_247_24312" result="shape"/>
</filter>
<filter id="filter2_d_247_24312" x="101.5" y="423" width="20" height="20" filterUnits="userSpaceOnUse" color-interpolation-filters="sRGB">
<feFlood flood-opacity="0" result="BackgroundImageFix"/>
<feColorMatrix in="SourceAlpha" type="matrix" values="0 0 0 0 0 0 0 0 0 0 0 0 0 0 0 0 0 0 127 0" result="hardAlpha"/>
<feOffset dy="1"/>
<feGaussianBlur stdDeviation="1"/>
<feColorMatrix type="matrix" values="0 0 0 0 0 0 0 0 0 0 0 0 0 0 0 0 0 0 0.05 0"/>
<feBlend mode="normal" in2="BackgroundImageFix" result="effect1_dropShadow_247_24312"/>
<feBlend mode="normal" in="SourceGraphic" in2="effect1_dropShadow_247_24312" result="shape"/>
</filter>
<filter id="filter3_d_247_24312" x="101.5" y="455" width="20" height="20" filterUnits="userSpaceOnUse" color-interpolation-filters="sRGB">
<feFlood flood-opacity="0" result="BackgroundImageFix"/>
<feColorMatrix in="SourceAlpha" type="matrix" values="0 0 0 0 0 0 0 0 0 0 0 0 0 0 0 0 0 0 127 0" result="hardAlpha"/>
<feOffset dy="1"/>
<feGaussianBlur stdDeviation="1"/>
<feColorMatrix type="matrix" values="0 0 0 0 0 0 0 0 0 0 0 0 0 0 0 0 0 0 0.05 0"/>
<feBlend mode="normal" in2="BackgroundImageFix" result="effect1_dropShadow_247_24312"/>
<feBlend mode="normal" in="SourceGraphic" in2="effect1_dropShadow_247_24312" result="shape"/>
</filter>
<filter id="filter4_d_247_24312" x="101.5" y="487" width="20" height="20" filterUnits="userSpaceOnUse" color-interpolation-filters="sRGB">
<feFlood flood-opacity="0" result="BackgroundImageFix"/>
<feColorMatrix in="SourceAlpha" type="matrix" values="0 0 0 0 0 0 0 0 0 0 0 0 0 0 0 0 0 0 127 0" result="hardAlpha"/>
<feOffset dy="1"/>
<feGaussianBlur stdDeviation="1"/>
<feColorMatrix type="matrix" values="0 0 0 0 0 0 0 0 0 0 0 0 0 0 0 0 0 0 0.05 0"/>
<feBlend mode="normal" in2="BackgroundImageFix" result="effect1_dropShadow_247_24312"/>
<feBlend mode="normal" in="SourceGraphic" in2="effect1_dropShadow_247_24312" result="shape"/>
</filter>
<filter id="filter5_d_247_24312" x="533.5" y="416.75" width="25" height="25" filterUnits="userSpaceOnUse" color-interpolation-filters="sRGB">
<feFlood flood-opacity="0" result="BackgroundImageFix"/>
<feColorMatrix in="SourceAlpha" type="matrix" values="0 0 0 0 0 0 0 0 0 0 0 0 0 0 0 0 0 0 127 0" result="hardAlpha"/>
<feOffset dy="1.25"/>
<feGaussianBlur stdDeviation="1.25"/>
<feColorMatrix type="matrix" values="0 0 0 0 0 0 0 0 0 0 0 0 0 0 0 0 0 0 0.05 0"/>
<feBlend mode="normal" in2="BackgroundImageFix" result="effect1_dropShadow_247_24312"/>
<feBlend mode="normal" in="SourceGraphic" in2="effect1_dropShadow_247_24312" result="shape"/>
</filter>
<filter id="filter6_d_247_24312" x="533.5" y="452.75" width="25" height="25" filterUnits="userSpaceOnUse" color-interpolation-filters="sRGB">
<feFlood flood-opacity="0" result="BackgroundImageFix"/>
<feColorMatrix in="SourceAlpha" type="matrix" values="0 0 0 0 0 0 0 0 0 0 0 0 0 0 0 0 0 0 127 0" result="hardAlpha"/>
<feOffset dy="1.25"/>
<feGaussianBlur stdDeviation="1.25"/>
<feColorMatrix type="matrix" values="0 0 0 0 0 0 0 0 0 0 0 0 0 0 0 0 0 0 0.05 0"/>
<feBlend mode="normal" in2="BackgroundImageFix" result="effect1_dropShadow_247_24312"/>
<feBlend mode="normal" in="SourceGraphic" in2="effect1_dropShadow_247_24312" result="shape"/>
</filter>
<filter id="filter7_d_247_24312" x="533.5" y="488.75" width="25" height="25" filterUnits="userSpaceOnUse" color-interpolation-filters="sRGB">
<feFlood flood-opacity="0" result="BackgroundImageFix"/>
<feColorMatrix in="SourceAlpha" type="matrix" values="0 0 0 0 0 0 0 0 0 0 0 0 0 0 0 0 0 0 127 0" result="hardAlpha"/>
<feOffset dy="1.25"/>
<feGaussianBlur stdDeviation="1.25"/>
<feColorMatrix type="matrix" values="0 0 0 0 0 0 0 0 0 0 0 0 0 0 0 0 0 0 0.05 0"/>
<feBlend mode="normal" in2="BackgroundImageFix" result="effect1_dropShadow_247_24312"/>
<feBlend mode="normal" in="SourceGraphic" in2="effect1_dropShadow_247_24312" result="shape"/>
</filter>
<filter id="filter8_d_247_24312" x="171" y="214" width="452" height="152" filterUnits="userSpaceOnUse" color-interpolation-filters="sRGB">
<feFlood flood-opacity="0" result="BackgroundImageFix"/>
<feColorMatrix in="SourceAlpha" type="matrix" values="0 0 0 0 0 0 0 0 0 0 0 0 0 0 0 0 0 0 127 0" result="hardAlpha"/>
<feOffset dy="4"/>
<feGaussianBlur stdDeviation="7"/>
<feComposite in2="hardAlpha" operator="out"/>
<feColorMatrix type="matrix" values="0 0 0 0 0 0 0 0 0 0 0 0 0 0 0 0 0 0 0.25 0"/>
<feBlend mode="normal" in2="BackgroundImageFix" result="effect1_dropShadow_247_24312"/>
<feBlend mode="normal" in="SourceGraphic" in2="effect1_dropShadow_247_24312" result="shape"/>
</filter>
<linearGradient id="paint0_linear_247_24312" x1="324.5" y1="268" x2="86.1846" y2="-117.303" gradientUnits="userSpaceOnUse">
<stop stop-color="#4C29B5"/>
<stop offset="1" stop-color="#6A3FEC" stop-opacity="0.5"/>
</linearGradient>
<linearGradient id="paint1_linear_247_24312" x1="324" y1="268" x2="85.6846" y2="-117.303" gradientUnits="userSpaceOnUse">
<stop stop-color="#4C29B5"/>
<stop offset="1" stop-color="#6A3FEC" stop-opacity="0.5"/>
</linearGradient>
<linearGradient id="paint2_linear_247_24312" x1="324.5" y1="598" x2="86.1846" y2="212.697" gradientUnits="userSpaceOnUse">
<stop stop-color="#4C29B5"/>
<stop offset="1" stop-color="#6A3FEC" stop-opacity="0.5"/>
</linearGradient>
<linearGradient id="paint3_linear_247_24312" x1="324" y1="268" x2="85.6846" y2="-117.303" gradientUnits="userSpaceOnUse">
<stop stop-color="#4C29B5"/>
<stop offset="1" stop-color="#6A3FEC" stop-opacity="0.5"/>
</linearGradient>
<clipPath id="clip0_247_24312">
<rect x="0.5" width="360" height="261" rx="10" fill="white"/>
</clipPath>
<clipPath id="clip1_247_24312">
<path d="M82.5 120.5C82.5 114.977 86.9772 110.5 92.5 110.5H267.5C273.023 110.5 277.5 114.977 277.5 120.5V205.5C277.5 211.023 273.023 215.5 267.5 215.5H92.5C86.9772 215.5 82.5 211.023 82.5 205.5V120.5Z" fill="white"/>
</clipPath>
<clipPath id="clip2_247_24312">
<rect x="82.5" y="110.5" width="195" height="105" rx="10" fill="white"/>
</clipPath>
<clipPath id="clip3_247_24312">
<rect x="433.5" width="360" height="261" rx="10" fill="white"/>
</clipPath>
<clipPath id="clip4_247_24312">
<rect x="0.5" y="330" width="360" height="261" rx="10" fill="white"/>
</clipPath>
<clipPath id="clip5_247_24312">
<rect x="103.5" y="424" width="16" height="16" rx="8" fill="white"/>
</clipPath>
<clipPath id="clip6_247_24312">
<rect x="103.5" y="456" width="16" height="16" rx="8" fill="white"/>
</clipPath>
<clipPath id="clip7_247_24312">
<rect x="103.5" y="488" width="16" height="16" rx="8" fill="white"/>
</clipPath>
<clipPath id="clip8_247_24312">
<rect x="433.5" y="330" width="360" height="261" rx="10" fill="white"/>
</clipPath>
<clipPath id="clip9_247_24312">
<rect x="536" y="418" width="20" height="20" rx="5" fill="white"/>
</clipPath>
<clipPath id="clip10_247_24312">
<rect x="536" y="490" width="20" height="20" rx="5" fill="white"/>
</clipPath>
</defs>
</svg>
