<svg width="793" height="591" viewBox="0 0 793 591" fill="none" xmlns="http://www.w3.org/2000/svg">
<g clip-path="url(#clip0_247_23325)">
<rect width="360" height="261" rx="10" fill="white"/>
<rect width="360" height="268" rx="5" fill="url(#paint0_linear_247_23325)"/>
<ellipse opacity="0.1" cx="48.6966" cy="322.185" rx="245.984" ry="173.185" fill="black"/>
<ellipse opacity="0.08" cx="308.484" cy="-44.4456" rx="245.984" ry="173.185" fill="black"/>
<rect x="82" y="68.5" width="195" height="37" rx="8" fill="white"/>
<path d="M249.645 82.5L255 87.8433L260.355 82.5L262 84.145L255 91.145L248 84.145L249.645 82.5Z" fill="white"/>
<path d="M103 85.5H220" stroke="#D1D1D6" stroke-width="4" stroke-linecap="round"/>
<g filter="url(#filter0_d_247_23325)">
<g clip-path="url(#clip1_247_23325)">
<path d="M82 120.5C82 114.977 86.4772 110.5 92 110.5H267C272.523 110.5 277 114.977 277 120.5V205.5C277 211.023 272.523 215.5 267 215.5H92C86.4772 215.5 82 211.023 82 205.5V120.5Z" fill="white"/>
<g clip-path="url(#clip2_247_23325)">
<rect x="82" y="110.5" width="195" height="105" rx="10" fill="white"/>
<rect x="82" y="110.5" width="195" height="35" fill="white"/>
<rect x="82" y="145.5" width="195" height="35" fill="#F7F7F7"/>
<rect x="82" y="180.5" width="195" height="35" fill="white"/>
<path d="M103 130.5H223" stroke="#D1D1D6" stroke-width="4" stroke-linecap="round"/>
<path d="M103 164.5H203" stroke="#D1D1D6" stroke-width="4" stroke-linecap="round"/>
<path d="M103 196.5H243" stroke="#D1D1D6" stroke-width="4" stroke-linecap="round"/>
</g>
</g>
</g>
</g>
<g clip-path="url(#clip3_247_23325)">
<rect x="433" width="360" height="261" rx="10" fill="white"/>
<rect width="360" height="268" rx="5" transform="matrix(-1 0 0 1 793 -0.5)" fill="url(#paint1_linear_247_23325)"/>
<ellipse opacity="0.1" cx="481.697" cy="322.185" rx="245.984" ry="173.185" fill="black"/>
<ellipse opacity="0.08" cx="741.484" cy="-44.4456" rx="245.984" ry="173.185" fill="black"/>
<g filter="url(#filter1_d_247_23325)">
<rect x="507" y="99.5" width="212" height="68" rx="10" fill="white" shape-rendering="crispEdges"/>
<rect x="531" y="119" width="28" height="29" rx="5.5" stroke="#CECDCD"/>
<path d="M543.04 130V128.752H545.536V137.5H544.156V130H543.04Z" fill="#CECDCD"/>
<rect x="566" y="119" width="30" height="29" rx="5.5" stroke="#CECDCD"/>
<path d="M578.976 135.64C579.744 134.976 580.348 134.432 580.788 134.008C581.236 133.576 581.608 133.128 581.904 132.664C582.2 132.2 582.348 131.736 582.348 131.272C582.348 130.792 582.232 130.416 582 130.144C581.776 129.872 581.42 129.736 580.932 129.736C580.46 129.736 580.092 129.888 579.828 130.192C579.572 130.488 579.436 130.888 579.42 131.392H578.1C578.124 130.48 578.396 129.784 578.916 129.304C579.444 128.816 580.112 128.572 580.92 128.572C581.792 128.572 582.472 128.812 582.96 129.292C583.456 129.772 583.704 130.412 583.704 131.212C583.704 131.788 583.556 132.344 583.26 132.88C582.972 133.408 582.624 133.884 582.216 134.308C581.816 134.724 581.304 135.208 580.68 135.76L580.14 136.24H583.944V137.38H578.112V136.384L578.976 135.64Z" fill="#CECDCD"/>
<rect x="603" y="119" width="31" height="29" rx="5.5" stroke="#CECDCD"/>
<path d="M615.196 130.912C615.244 130.168 615.528 129.588 616.048 129.172C616.576 128.756 617.248 128.548 618.064 128.548C618.624 128.548 619.108 128.648 619.516 128.848C619.924 129.048 620.232 129.32 620.44 129.664C620.648 130.008 620.752 130.396 620.752 130.828C620.752 131.324 620.62 131.748 620.356 132.1C620.092 132.452 619.776 132.688 619.408 132.808V132.856C619.88 133 620.248 133.264 620.512 133.648C620.776 134.024 620.908 134.508 620.908 135.1C620.908 135.572 620.8 135.992 620.584 136.36C620.368 136.728 620.048 137.02 619.624 137.236C619.2 137.444 618.692 137.548 618.1 137.548C617.236 137.548 616.524 137.328 615.964 136.888C615.412 136.44 615.116 135.8 615.076 134.968H616.396C616.428 135.392 616.592 135.74 616.888 136.012C617.184 136.276 617.584 136.408 618.088 136.408C618.576 136.408 618.952 136.276 619.216 136.012C619.48 135.74 619.612 135.392 619.612 134.968C619.612 134.408 619.432 134.012 619.072 133.78C618.72 133.54 618.176 133.42 617.44 133.42H617.128V132.292H617.452C618.1 132.284 618.592 132.176 618.928 131.968C619.272 131.76 619.444 131.432 619.444 130.984C619.444 130.6 619.32 130.296 619.072 130.072C618.824 129.84 618.472 129.724 618.016 129.724C617.568 129.724 617.22 129.84 616.972 130.072C616.724 130.296 616.576 130.576 616.528 130.912H615.196Z" fill="#CECDCD"/>
<rect x="641" y="119" width="54" height="29" rx="5.5" stroke="#CECDCD"/>
<path d="M662.184 129.16V137.5H660.816V131.788L658.272 137.5H657.324L654.768 131.788V137.5H653.4V129.16H654.876L657.804 135.7L660.72 129.16H662.184ZM666.85 137.608C666.226 137.608 665.662 137.468 665.158 137.188C664.654 136.9 664.258 136.5 663.97 135.988C663.682 135.468 663.538 134.868 663.538 134.188C663.538 133.516 663.686 132.92 663.982 132.4C664.278 131.88 664.682 131.48 665.194 131.2C665.706 130.92 666.278 130.78 666.91 130.78C667.542 130.78 668.114 130.92 668.626 131.2C669.138 131.48 669.542 131.88 669.838 132.4C670.134 132.92 670.282 133.516 670.282 134.188C670.282 134.86 670.13 135.456 669.826 135.976C669.522 136.496 669.106 136.9 668.578 137.188C668.058 137.468 667.482 137.608 666.85 137.608ZM666.85 136.42C667.202 136.42 667.53 136.336 667.834 136.168C668.146 136 668.398 135.748 668.59 135.412C668.782 135.076 668.878 134.668 668.878 134.188C668.878 133.708 668.786 133.304 668.602 132.976C668.418 132.64 668.174 132.388 667.87 132.22C667.566 132.052 667.238 131.968 666.886 131.968C666.534 131.968 666.206 132.052 665.902 132.22C665.606 132.388 665.37 132.64 665.194 132.976C665.018 133.304 664.93 133.708 664.93 134.188C664.93 134.9 665.11 135.452 665.47 135.844C665.838 136.228 666.298 136.42 666.85 136.42ZM673.002 131.848C673.202 131.512 673.466 131.252 673.794 131.068C674.13 130.876 674.526 130.78 674.982 130.78V132.196H674.634C674.098 132.196 673.69 132.332 673.41 132.604C673.138 132.876 673.002 133.348 673.002 134.02V137.5H671.634V130.888H673.002V131.848ZM682.3 134.032C682.3 134.28 682.284 134.504 682.252 134.704H677.2C677.24 135.232 677.436 135.656 677.788 135.976C678.14 136.296 678.572 136.456 679.084 136.456C679.82 136.456 680.34 136.148 680.644 135.532H682.12C681.92 136.14 681.556 136.64 681.028 137.032C680.508 137.416 679.86 137.608 679.084 137.608C678.452 137.608 677.884 137.468 677.38 137.188C676.884 136.9 676.492 136.5 676.204 135.988C675.924 135.468 675.784 134.868 675.784 134.188C675.784 133.508 675.92 132.912 676.192 132.4C676.472 131.88 676.86 131.48 677.356 131.2C677.86 130.92 678.436 130.78 679.084 130.78C679.708 130.78 680.264 130.916 680.752 131.188C681.24 131.46 681.62 131.844 681.892 132.34C682.164 132.828 682.3 133.392 682.3 134.032ZM680.872 133.6C680.864 133.096 680.684 132.692 680.332 132.388C679.98 132.084 679.544 131.932 679.024 131.932C678.552 131.932 678.148 132.084 677.812 132.388C677.476 132.684 677.276 133.088 677.212 133.6H680.872Z" fill="#CECDCD"/>
</g>
</g>
<g clip-path="url(#clip4_247_23325)">
<rect y="330" width="360" height="261" rx="10" fill="white"/>
<rect y="330" width="360" height="268" rx="5" fill="url(#paint2_linear_247_23325)"/>
<ellipse opacity="0.1" cx="48.6966" cy="652.185" rx="245.984" ry="173.185" fill="black"/>
<ellipse opacity="0.08" cx="308.484" cy="285.554" rx="245.984" ry="173.185" fill="black"/>
<rect x="62.5" y="399" width="234" height="130" rx="8" fill="white"/>
<g filter="url(#filter2_d_247_23325)">
<g clip-path="url(#clip5_247_23325)">
<rect x="103" y="424" width="16" height="16" rx="8" fill="white"/>
</g>
<rect x="103.5" y="424.5" width="15" height="15" rx="7.5" stroke="#D5DAE1"/>
</g>
<line x1="129" y1="427" x2="256" y2="427" stroke="#D3D3D3" stroke-width="2"/>
<line x1="129" y1="437" x2="181" y2="437" stroke="#D3D3D3" stroke-width="2"/>
<g filter="url(#filter3_d_247_23325)">
<g clip-path="url(#clip6_247_23325)">
<rect x="103" y="456" width="16" height="16" rx="8" fill="white"/>
</g>
<rect x="103.5" y="456.5" width="15" height="15" rx="7.5" stroke="#D5DAE1"/>
</g>
<line x1="129" y1="459" x2="256" y2="459" stroke="#D3D3D3" stroke-width="2"/>
<line x1="129" y1="469" x2="181" y2="469" stroke="#D3D3D3" stroke-width="2"/>
<g filter="url(#filter4_d_247_23325)">
<g clip-path="url(#clip7_247_23325)">
<rect x="103" y="488" width="16" height="16" rx="8" fill="white"/>
</g>
<rect x="103.5" y="488.5" width="15" height="15" rx="7.5" stroke="#D5DAE1"/>
</g>
<line x1="129" y1="491" x2="256" y2="491" stroke="#D3D3D3" stroke-width="2"/>
<line x1="129" y1="501" x2="181" y2="501" stroke="#D3D3D3" stroke-width="2"/>
</g>
<g clip-path="url(#clip8_247_23325)">
<rect x="433" y="330" width="360" height="261" rx="10" fill="white"/>
<rect width="360" height="268" rx="5" transform="matrix(-1 0 0 1 793 330)" fill="url(#paint3_linear_247_23325)"/>
<ellipse opacity="0.1" cx="481.697" cy="652.185" rx="245.984" ry="173.185" fill="black"/>
<ellipse opacity="0.08" cx="741.484" cy="285.554" rx="245.984" ry="173.185" fill="black"/>
<rect x="495" y="399" width="234" height="130" rx="8" fill="white"/>
<g filter="url(#filter5_d_247_23325)">
<rect x="535.5" y="418" width="20" height="20" rx="5" fill="white"/>
<rect x="536.125" y="418.625" width="18.75" height="18.75" rx="4.375" stroke="#D5DAE1" stroke-width="1.25"/>
</g>
<line x1="562" y1="421" x2="689" y2="421" stroke="#D3D3D3" stroke-width="2"/>
<line x1="562" y1="431" x2="614" y2="431" stroke="#D3D3D3" stroke-width="2"/>
<g filter="url(#filter6_d_247_23325)">
<rect x="535.5" y="454" width="20" height="20" rx="5" fill="white"/>
<rect x="536.125" y="454.625" width="18.75" height="18.75" rx="4.375" stroke="#D5DAE1" stroke-width="1.25"/>
</g>
<line x1="562" y1="457" x2="689" y2="457" stroke="#D3D3D3" stroke-width="2"/>
<line x1="562" y1="467" x2="614" y2="467" stroke="#D3D3D3" stroke-width="2"/>
<g filter="url(#filter7_d_247_23325)">
<rect x="535.5" y="490" width="20" height="20" rx="5" fill="white"/>
<rect x="536.125" y="490.625" width="18.75" height="18.75" rx="4.375" stroke="#D5DAE1" stroke-width="1.25"/>
</g>
<line x1="562" y1="493" x2="689" y2="493" stroke="#D3D3D3" stroke-width="2"/>
<line x1="562" y1="503" x2="614" y2="503" stroke="#D3D3D3" stroke-width="2"/>
</g>
<g filter="url(#filter8_d_247_23325)">
<rect x="184" y="224" width="424" height="124" rx="20" fill="white" shape-rendering="crispEdges"/>
<rect x="224.5" y="269" width="343" height="34" rx="17" fill="white"/>
<rect x="224.5" y="269" width="343" height="34" rx="17" stroke="#FF0079"/>
<path d="M254 294L249.803 289.803M252 284.5C252 280.358 248.642 277 244.5 277C240.358 277 237 280.358 237 284.5C237 288.642 240.358 292 244.5 292C248.642 292 252 288.642 252 284.5Z" stroke="#FF0079" stroke-width="1.5" stroke-linecap="round" stroke-linejoin="round"/>
<path d="M268.83 283.955C268.778 283.523 268.571 283.188 268.207 282.949C267.844 282.71 267.398 282.591 266.869 282.591C266.483 282.591 266.145 282.653 265.855 282.778C265.568 282.903 265.344 283.075 265.182 283.294C265.023 283.513 264.943 283.761 264.943 284.04C264.943 284.273 264.999 284.473 265.109 284.641C265.223 284.805 265.368 284.943 265.544 285.054C265.72 285.162 265.905 285.251 266.098 285.322C266.291 285.391 266.469 285.446 266.631 285.489L267.517 285.727C267.744 285.787 267.997 285.869 268.276 285.974C268.557 286.08 268.825 286.223 269.081 286.405C269.339 286.584 269.553 286.814 269.72 287.095C269.888 287.376 269.972 287.722 269.972 288.131C269.972 288.602 269.848 289.028 269.601 289.409C269.357 289.79 268.999 290.092 268.527 290.317C268.058 290.541 267.489 290.653 266.818 290.653C266.193 290.653 265.652 290.553 265.195 290.351C264.74 290.149 264.382 289.868 264.121 289.507C263.862 289.146 263.716 288.727 263.682 288.25H264.773C264.801 288.58 264.912 288.852 265.105 289.068C265.301 289.281 265.548 289.44 265.847 289.545C266.148 289.648 266.472 289.699 266.818 289.699C267.222 289.699 267.584 289.634 267.905 289.503C268.226 289.369 268.48 289.185 268.668 288.949C268.855 288.71 268.949 288.432 268.949 288.114C268.949 287.824 268.868 287.588 268.706 287.406C268.544 287.224 268.331 287.077 268.067 286.963C267.803 286.849 267.517 286.75 267.21 286.665L266.136 286.358C265.455 286.162 264.915 285.882 264.517 285.518C264.119 285.155 263.92 284.679 263.92 284.091C263.92 283.602 264.053 283.176 264.317 282.812C264.584 282.446 264.942 282.162 265.391 281.96C265.842 281.756 266.347 281.653 266.903 281.653C267.466 281.653 267.966 281.754 268.403 281.956C268.841 282.155 269.188 282.428 269.443 282.774C269.702 283.121 269.838 283.514 269.852 283.955H268.83ZM274.077 290.636C273.446 290.636 272.902 290.497 272.445 290.219C271.99 289.938 271.64 289.545 271.392 289.043C271.148 288.537 271.026 287.949 271.026 287.278C271.026 286.608 271.148 286.017 271.392 285.506C271.64 284.991 271.983 284.591 272.424 284.304C272.867 284.014 273.384 283.869 273.975 283.869C274.316 283.869 274.652 283.926 274.985 284.04C275.317 284.153 275.62 284.338 275.892 284.594C276.165 284.847 276.383 285.182 276.544 285.599C276.706 286.017 276.787 286.531 276.787 287.142V287.568H271.742V286.699H275.765C275.765 286.33 275.691 286 275.543 285.71C275.398 285.42 275.191 285.192 274.921 285.024C274.654 284.857 274.338 284.773 273.975 284.773C273.574 284.773 273.228 284.872 272.935 285.071C272.645 285.267 272.422 285.523 272.266 285.838C272.11 286.153 272.032 286.491 272.032 286.852V287.432C272.032 287.926 272.117 288.345 272.287 288.689C272.461 289.03 272.701 289.29 273.008 289.469C273.314 289.645 273.671 289.733 274.077 289.733C274.341 289.733 274.58 289.696 274.793 289.622C275.009 289.545 275.195 289.432 275.351 289.281C275.508 289.128 275.628 288.937 275.713 288.71L276.685 288.983C276.583 289.312 276.411 289.602 276.169 289.852C275.928 290.099 275.63 290.293 275.275 290.432C274.919 290.568 274.52 290.636 274.077 290.636ZM280.003 290.653C279.589 290.653 279.212 290.575 278.874 290.419C278.536 290.26 278.268 290.031 278.069 289.733C277.87 289.432 277.77 289.068 277.77 288.642C277.77 288.267 277.844 287.963 277.992 287.73C278.14 287.494 278.337 287.31 278.584 287.176C278.831 287.043 279.104 286.943 279.402 286.878C279.704 286.81 280.006 286.756 280.31 286.716C280.708 286.665 281.03 286.626 281.277 286.601C281.527 286.572 281.709 286.526 281.823 286.46C281.939 286.395 281.998 286.281 281.998 286.119V286.085C281.998 285.665 281.883 285.338 281.652 285.105C281.425 284.872 281.08 284.756 280.617 284.756C280.137 284.756 279.76 284.861 279.488 285.071C279.215 285.281 279.023 285.506 278.912 285.744L277.958 285.403C278.128 285.006 278.356 284.696 278.64 284.474C278.927 284.25 279.239 284.094 279.577 284.006C279.918 283.915 280.253 283.869 280.583 283.869C280.793 283.869 281.035 283.895 281.307 283.946C281.583 283.994 281.848 284.095 282.104 284.249C282.363 284.402 282.577 284.634 282.748 284.943C282.918 285.253 283.003 285.668 283.003 286.188V290.5H281.998V289.614H281.946C281.878 289.756 281.765 289.908 281.606 290.07C281.446 290.232 281.235 290.369 280.971 290.483C280.706 290.597 280.384 290.653 280.003 290.653ZM280.157 289.75C280.554 289.75 280.89 289.672 281.162 289.516C281.438 289.359 281.645 289.158 281.785 288.911C281.927 288.663 281.998 288.403 281.998 288.131V287.21C281.955 287.261 281.861 287.308 281.716 287.351C281.574 287.391 281.41 287.426 281.222 287.457C281.037 287.486 280.857 287.511 280.681 287.534C280.508 287.554 280.367 287.571 280.259 287.585C279.998 287.619 279.753 287.675 279.526 287.751C279.302 287.825 279.12 287.937 278.981 288.088C278.844 288.236 278.776 288.437 278.776 288.693C278.776 289.043 278.905 289.307 279.164 289.486C279.425 289.662 279.756 289.75 280.157 289.75ZM284.599 290.5V283.955H285.57V284.943H285.639C285.758 284.619 285.974 284.357 286.286 284.155C286.599 283.953 286.951 283.852 287.343 283.852C287.417 283.852 287.509 283.854 287.62 283.857C287.731 283.859 287.815 283.864 287.872 283.869V284.892C287.838 284.884 287.759 284.871 287.637 284.854C287.518 284.834 287.392 284.824 287.258 284.824C286.94 284.824 286.656 284.891 286.406 285.024C286.159 285.155 285.963 285.337 285.818 285.57C285.676 285.8 285.605 286.062 285.605 286.358V290.5H284.599ZM291.284 290.636C290.67 290.636 290.142 290.491 289.698 290.202C289.255 289.912 288.914 289.513 288.676 289.004C288.437 288.496 288.318 287.915 288.318 287.261C288.318 286.597 288.44 286.01 288.684 285.501C288.931 284.99 289.275 284.591 289.715 284.304C290.159 284.014 290.676 283.869 291.267 283.869C291.727 283.869 292.142 283.955 292.511 284.125C292.88 284.295 293.183 284.534 293.419 284.841C293.654 285.148 293.801 285.506 293.857 285.915H292.852C292.775 285.616 292.605 285.352 292.34 285.122C292.079 284.889 291.727 284.773 291.284 284.773C290.892 284.773 290.548 284.875 290.252 285.08C289.96 285.281 289.731 285.567 289.566 285.936C289.404 286.303 289.323 286.733 289.323 287.227C289.323 287.733 289.403 288.173 289.562 288.548C289.724 288.923 289.951 289.214 290.244 289.422C290.539 289.629 290.886 289.733 291.284 289.733C291.545 289.733 291.782 289.688 291.995 289.597C292.208 289.506 292.389 289.375 292.536 289.205C292.684 289.034 292.789 288.83 292.852 288.591H293.857C293.801 288.977 293.66 289.325 293.436 289.635C293.214 289.942 292.92 290.186 292.553 290.368C292.19 290.547 291.767 290.636 291.284 290.636ZM296.093 286.562V290.5H295.088V281.773H296.093V284.977H296.179C296.332 284.639 296.562 284.371 296.869 284.172C297.179 283.97 297.59 283.869 298.105 283.869C298.551 283.869 298.941 283.959 299.277 284.138C299.612 284.314 299.872 284.585 300.056 284.952C300.244 285.315 300.338 285.778 300.338 286.341V290.5H299.332V286.409C299.332 285.889 299.197 285.487 298.927 285.203C298.66 284.916 298.289 284.773 297.815 284.773C297.485 284.773 297.19 284.842 296.929 284.982C296.67 285.121 296.465 285.324 296.315 285.591C296.167 285.858 296.093 286.182 296.093 286.562ZM307.732 290.636C307.141 290.636 306.622 290.496 306.176 290.214C305.733 289.933 305.386 289.54 305.136 289.034C304.889 288.528 304.766 287.937 304.766 287.261C304.766 286.58 304.889 285.984 305.136 285.476C305.386 284.967 305.733 284.572 306.176 284.291C306.622 284.01 307.141 283.869 307.732 283.869C308.322 283.869 308.84 284.01 309.283 284.291C309.729 284.572 310.075 284.967 310.322 285.476C310.572 285.984 310.697 286.58 310.697 287.261C310.697 287.937 310.572 288.528 310.322 289.034C310.075 289.54 309.729 289.933 309.283 290.214C308.84 290.496 308.322 290.636 307.732 290.636ZM307.732 289.733C308.18 289.733 308.55 289.618 308.84 289.388C309.129 289.158 309.344 288.855 309.483 288.48C309.622 288.105 309.692 287.699 309.692 287.261C309.692 286.824 309.622 286.416 309.483 286.038C309.344 285.661 309.129 285.355 308.84 285.122C308.55 284.889 308.18 284.773 307.732 284.773C307.283 284.773 306.913 284.889 306.624 285.122C306.334 285.355 306.119 285.661 305.98 286.038C305.841 286.416 305.771 286.824 305.771 287.261C305.771 287.699 305.841 288.105 305.98 288.48C306.119 288.855 306.334 289.158 306.624 289.388C306.913 289.618 307.283 289.733 307.732 289.733ZM312.998 286.562V290.5H311.993V283.955H312.964V284.977H313.049C313.203 284.645 313.436 284.378 313.748 284.176C314.061 283.972 314.464 283.869 314.959 283.869C315.402 283.869 315.79 283.96 316.122 284.142C316.454 284.321 316.713 284.594 316.897 284.96C317.082 285.324 317.174 285.784 317.174 286.341V290.5H316.169V286.409C316.169 285.895 316.035 285.494 315.768 285.207C315.501 284.918 315.135 284.773 314.669 284.773C314.348 284.773 314.061 284.842 313.808 284.982C313.558 285.121 313.361 285.324 313.216 285.591C313.071 285.858 312.998 286.182 312.998 286.562ZM322.555 292.955C322.384 292.955 322.232 292.94 322.099 292.912C321.965 292.886 321.873 292.861 321.822 292.835L322.078 291.949C322.322 292.011 322.538 292.034 322.725 292.017C322.913 292 323.079 291.916 323.224 291.766C323.372 291.618 323.507 291.378 323.629 291.045L323.816 290.534L321.396 283.955H322.487L324.294 289.17H324.362L326.169 283.955H327.259L324.481 291.455C324.356 291.793 324.201 292.072 324.017 292.294C323.832 292.518 323.617 292.685 323.373 292.793C323.132 292.901 322.859 292.955 322.555 292.955ZM330.772 290.636C330.181 290.636 329.662 290.496 329.216 290.214C328.773 289.933 328.426 289.54 328.176 289.034C327.929 288.528 327.806 287.937 327.806 287.261C327.806 286.58 327.929 285.984 328.176 285.476C328.426 284.967 328.773 284.572 329.216 284.291C329.662 284.01 330.181 283.869 330.772 283.869C331.362 283.869 331.88 284.01 332.323 284.291C332.769 284.572 333.115 284.967 333.362 285.476C333.612 285.984 333.737 286.58 333.737 287.261C333.737 287.937 333.612 288.528 333.362 289.034C333.115 289.54 332.769 289.933 332.323 290.214C331.88 290.496 331.362 290.636 330.772 290.636ZM330.772 289.733C331.22 289.733 331.59 289.618 331.88 289.388C332.169 289.158 332.384 288.855 332.523 288.48C332.662 288.105 332.732 287.699 332.732 287.261C332.732 286.824 332.662 286.416 332.523 286.038C332.384 285.661 332.169 285.355 331.88 285.122C331.59 284.889 331.22 284.773 330.772 284.773C330.323 284.773 329.953 284.889 329.664 285.122C329.374 285.355 329.159 285.661 329.02 286.038C328.881 286.416 328.811 286.824 328.811 287.261C328.811 287.699 328.881 288.105 329.02 288.48C329.159 288.855 329.374 289.158 329.664 289.388C329.953 289.618 330.323 289.733 330.772 289.733ZM339.158 287.824V283.955H340.163V290.5H339.158V289.392H339.089C338.936 289.724 338.697 290.007 338.374 290.24C338.05 290.47 337.641 290.585 337.146 290.585C336.737 290.585 336.374 290.496 336.055 290.317C335.737 290.135 335.487 289.862 335.305 289.499C335.124 289.132 335.033 288.67 335.033 288.114V283.955H336.038V288.045C336.038 288.523 336.172 288.903 336.439 289.188C336.709 289.472 337.053 289.614 337.47 289.614C337.72 289.614 337.974 289.55 338.233 289.422C338.494 289.294 338.713 289.098 338.889 288.834C339.068 288.57 339.158 288.233 339.158 287.824ZM341.765 290.5V283.955H342.737V284.943H342.805C342.924 284.619 343.14 284.357 343.453 284.155C343.765 283.953 344.118 283.852 344.51 283.852C344.583 283.852 344.676 283.854 344.787 283.857C344.897 283.859 344.981 283.864 345.038 283.869V284.892C345.004 284.884 344.926 284.871 344.804 284.854C344.684 284.834 344.558 284.824 344.424 284.824C344.106 284.824 343.822 284.891 343.572 285.024C343.325 285.155 343.129 285.337 342.984 285.57C342.842 285.8 342.771 286.062 342.771 286.358V290.5H341.765ZM349.125 290.5V283.955H350.097V284.943H350.165C350.284 284.619 350.5 284.357 350.813 284.155C351.125 283.953 351.477 283.852 351.869 283.852C351.943 283.852 352.036 283.854 352.146 283.857C352.257 283.859 352.341 283.864 352.398 283.869V284.892C352.364 284.884 352.286 284.871 352.163 284.854C352.044 284.834 351.918 284.824 351.784 284.824C351.466 284.824 351.182 284.891 350.932 285.024C350.685 285.155 350.489 285.337 350.344 285.57C350.202 285.8 350.131 286.062 350.131 286.358V290.5H349.125ZM355.895 290.636C355.264 290.636 354.72 290.497 354.263 290.219C353.808 289.938 353.458 289.545 353.21 289.043C352.966 288.537 352.844 287.949 352.844 287.278C352.844 286.608 352.966 286.017 353.21 285.506C353.458 284.991 353.801 284.591 354.242 284.304C354.685 284.014 355.202 283.869 355.793 283.869C356.134 283.869 356.47 283.926 356.803 284.04C357.135 284.153 357.438 284.338 357.71 284.594C357.983 284.847 358.2 285.182 358.362 285.599C358.524 286.017 358.605 286.531 358.605 287.142V287.568H353.56V286.699H357.583C357.583 286.33 357.509 286 357.361 285.71C357.216 285.42 357.009 285.192 356.739 285.024C356.472 284.857 356.156 284.773 355.793 284.773C355.392 284.773 355.046 284.872 354.753 285.071C354.463 285.267 354.24 285.523 354.084 285.838C353.928 286.153 353.85 286.491 353.85 286.852V287.432C353.85 287.926 353.935 288.345 354.105 288.689C354.279 289.03 354.519 289.29 354.825 289.469C355.132 289.645 355.489 289.733 355.895 289.733C356.159 289.733 356.398 289.696 356.611 289.622C356.827 289.545 357.013 289.432 357.169 289.281C357.325 289.128 357.446 288.937 357.531 288.71L358.503 288.983C358.401 289.312 358.229 289.602 357.987 289.852C357.746 290.099 357.448 290.293 357.093 290.432C356.737 290.568 356.338 290.636 355.895 290.636ZM361.821 290.653C361.407 290.653 361.03 290.575 360.692 290.419C360.354 290.26 360.085 290.031 359.887 289.733C359.688 289.432 359.588 289.068 359.588 288.642C359.588 288.267 359.662 287.963 359.81 287.73C359.958 287.494 360.155 287.31 360.402 287.176C360.649 287.043 360.922 286.943 361.22 286.878C361.522 286.81 361.824 286.756 362.128 286.716C362.526 286.665 362.848 286.626 363.095 286.601C363.345 286.572 363.527 286.526 363.641 286.46C363.757 286.395 363.816 286.281 363.816 286.119V286.085C363.816 285.665 363.701 285.338 363.47 285.105C363.243 284.872 362.898 284.756 362.435 284.756C361.955 284.756 361.578 284.861 361.306 285.071C361.033 285.281 360.841 285.506 360.73 285.744L359.776 285.403C359.946 285.006 360.174 284.696 360.458 284.474C360.745 284.25 361.057 284.094 361.395 284.006C361.736 283.915 362.071 283.869 362.401 283.869C362.611 283.869 362.853 283.895 363.125 283.946C363.401 283.994 363.666 284.095 363.922 284.249C364.181 284.402 364.395 284.634 364.566 284.943C364.736 285.253 364.821 285.668 364.821 286.188V290.5H363.816V289.614H363.764C363.696 289.756 363.583 289.908 363.424 290.07C363.264 290.232 363.053 290.369 362.789 290.483C362.524 290.597 362.202 290.653 361.821 290.653ZM361.975 289.75C362.372 289.75 362.708 289.672 362.98 289.516C363.256 289.359 363.463 289.158 363.603 288.911C363.745 288.663 363.816 288.403 363.816 288.131V287.21C363.773 287.261 363.679 287.308 363.534 287.351C363.392 287.391 363.228 287.426 363.04 287.457C362.855 287.486 362.675 287.511 362.499 287.534C362.326 287.554 362.185 287.571 362.077 287.585C361.816 287.619 361.571 287.675 361.344 287.751C361.12 287.825 360.938 287.937 360.799 288.088C360.662 288.236 360.594 288.437 360.594 288.693C360.594 289.043 360.723 289.307 360.982 289.486C361.243 289.662 361.574 289.75 361.975 289.75ZM367.423 281.773V290.5H366.417V281.773H367.423ZM376.796 285.42L375.892 285.676C375.836 285.526 375.752 285.379 375.641 285.237C375.533 285.092 375.385 284.973 375.198 284.879C375.01 284.786 374.77 284.739 374.478 284.739C374.077 284.739 373.743 284.831 373.476 285.016C373.212 285.197 373.08 285.429 373.08 285.71C373.08 285.96 373.171 286.158 373.353 286.303C373.535 286.447 373.819 286.568 374.205 286.665L375.177 286.903C375.762 287.045 376.198 287.263 376.485 287.555C376.772 287.845 376.915 288.219 376.915 288.676C376.915 289.051 376.807 289.386 376.591 289.682C376.378 289.977 376.08 290.21 375.696 290.381C375.313 290.551 374.867 290.636 374.358 290.636C373.691 290.636 373.138 290.491 372.701 290.202C372.263 289.912 371.986 289.489 371.87 288.932L372.824 288.693C372.915 289.045 373.087 289.31 373.34 289.486C373.596 289.662 373.929 289.75 374.341 289.75C374.81 289.75 375.182 289.651 375.458 289.452C375.736 289.25 375.875 289.009 375.875 288.727C375.875 288.5 375.796 288.31 375.637 288.156C375.478 288 375.233 287.884 374.904 287.807L373.813 287.551C373.213 287.409 372.773 287.189 372.492 286.891C372.213 286.589 372.074 286.213 372.074 285.761C372.074 285.392 372.178 285.065 372.385 284.781C372.596 284.497 372.881 284.274 373.242 284.112C373.606 283.95 374.017 283.869 374.478 283.869C375.125 283.869 375.634 284.011 376.003 284.295C376.375 284.58 376.64 284.955 376.796 285.42ZM381.036 283.955V284.807H377.644V283.955H381.036ZM378.632 282.386H379.638V288.625C379.638 288.909 379.679 289.122 379.761 289.264C379.847 289.403 379.955 289.497 380.085 289.545C380.219 289.591 380.36 289.614 380.507 289.614C380.618 289.614 380.709 289.608 380.78 289.597C380.851 289.582 380.908 289.571 380.95 289.562L381.155 290.466C381.087 290.491 380.992 290.517 380.869 290.543C380.747 290.571 380.592 290.585 380.405 290.585C380.121 290.585 379.842 290.524 379.57 290.402C379.3 290.28 379.075 290.094 378.896 289.844C378.72 289.594 378.632 289.278 378.632 288.898V282.386ZM384.235 290.653C383.82 290.653 383.443 290.575 383.105 290.419C382.767 290.26 382.499 290.031 382.3 289.733C382.101 289.432 382.002 289.068 382.002 288.642C382.002 288.267 382.075 287.963 382.223 287.73C382.371 287.494 382.568 287.31 382.816 287.176C383.063 287.043 383.335 286.943 383.634 286.878C383.935 286.81 384.237 286.756 384.541 286.716C384.939 286.665 385.262 286.626 385.509 286.601C385.759 286.572 385.941 286.526 386.054 286.46C386.171 286.395 386.229 286.281 386.229 286.119V286.085C386.229 285.665 386.114 285.338 385.884 285.105C385.656 284.872 385.311 284.756 384.848 284.756C384.368 284.756 383.992 284.861 383.719 285.071C383.446 285.281 383.254 285.506 383.144 285.744L382.189 285.403C382.36 285.006 382.587 284.696 382.871 284.474C383.158 284.25 383.47 284.094 383.808 284.006C384.149 283.915 384.485 283.869 384.814 283.869C385.024 283.869 385.266 283.895 385.539 283.946C385.814 283.994 386.08 284.095 386.335 284.249C386.594 284.402 386.808 284.634 386.979 284.943C387.149 285.253 387.235 285.668 387.235 286.188V290.5H386.229V289.614H386.178C386.11 289.756 385.996 289.908 385.837 290.07C385.678 290.232 385.466 290.369 385.202 290.483C384.938 290.597 384.615 290.653 384.235 290.653ZM384.388 289.75C384.786 289.75 385.121 289.672 385.394 289.516C385.669 289.359 385.877 289.158 386.016 288.911C386.158 288.663 386.229 288.403 386.229 288.131V287.21C386.186 287.261 386.093 287.308 385.948 287.351C385.806 287.391 385.641 287.426 385.453 287.457C385.269 287.486 385.088 287.511 384.912 287.534C384.739 287.554 384.598 287.571 384.49 287.585C384.229 287.619 383.985 287.675 383.757 287.751C383.533 287.825 383.351 287.937 383.212 288.088C383.075 288.236 383.007 288.437 383.007 288.693C383.007 289.043 383.137 289.307 383.395 289.486C383.656 289.662 383.987 289.75 384.388 289.75ZM391.677 283.955V284.807H388.285V283.955H391.677ZM389.273 282.386H390.279V288.625C390.279 288.909 390.32 289.122 390.403 289.264C390.488 289.403 390.596 289.497 390.726 289.545C390.86 289.591 391.001 289.614 391.148 289.614C391.259 289.614 391.35 289.608 391.421 289.597C391.492 289.582 391.549 289.571 391.592 289.562L391.796 290.466C391.728 290.491 391.633 290.517 391.511 290.543C391.388 290.571 391.234 290.585 391.046 290.585C390.762 290.585 390.484 290.524 390.211 290.402C389.941 290.28 389.717 290.094 389.538 289.844C389.361 289.594 389.273 289.278 389.273 288.898V282.386ZM395.624 290.636C394.993 290.636 394.449 290.497 393.991 290.219C393.537 289.938 393.186 289.545 392.939 289.043C392.695 288.537 392.572 287.949 392.572 287.278C392.572 286.608 392.695 286.017 392.939 285.506C393.186 284.991 393.53 284.591 393.97 284.304C394.413 284.014 394.93 283.869 395.521 283.869C395.862 283.869 396.199 283.926 396.531 284.04C396.864 284.153 397.166 284.338 397.439 284.594C397.712 284.847 397.929 285.182 398.091 285.599C398.253 286.017 398.334 286.531 398.334 287.142V287.568H393.288V286.699H397.311C397.311 286.33 397.237 286 397.089 285.71C396.945 285.42 396.737 285.192 396.467 285.024C396.2 284.857 395.885 284.773 395.521 284.773C395.121 284.773 394.774 284.872 394.481 285.071C394.192 285.267 393.969 285.523 393.812 285.838C393.656 286.153 393.578 286.491 393.578 286.852V287.432C393.578 287.926 393.663 288.345 393.834 288.689C394.007 289.03 394.247 289.29 394.554 289.469C394.861 289.645 395.217 289.733 395.624 289.733C395.888 289.733 396.126 289.696 396.339 289.622C396.555 289.545 396.741 289.432 396.898 289.281C397.054 289.128 397.175 288.937 397.26 288.71L398.231 288.983C398.129 289.312 397.957 289.602 397.716 289.852C397.474 290.099 397.176 290.293 396.821 290.432C396.466 290.568 396.067 290.636 395.624 290.636Z" fill="#FF0079"/>
</g>
<defs>
<filter id="filter0_d_247_23325" x="76.5" y="109" width="206" height="116" filterUnits="userSpaceOnUse" color-interpolation-filters="sRGB">
<feFlood flood-opacity="0" result="BackgroundImageFix"/>
<feColorMatrix in="SourceAlpha" type="matrix" values="0 0 0 0 0 0 0 0 0 0 0 0 0 0 0 0 0 0 127 0" result="hardAlpha"/>
<feOffset dy="4"/>
<feGaussianBlur stdDeviation="2.75"/>
<feComposite in2="hardAlpha" operator="out"/>
<feColorMatrix type="matrix" values="0 0 0 0 0 0 0 0 0 0 0 0 0 0 0 0 0 0 0.09 0"/>
<feBlend mode="normal" in2="BackgroundImageFix" result="effect1_dropShadow_247_23325"/>
<feBlend mode="normal" in="SourceGraphic" in2="effect1_dropShadow_247_23325" result="shape"/>
</filter>
<filter id="filter1_d_247_23325" x="501.5" y="98" width="223" height="79" filterUnits="userSpaceOnUse" color-interpolation-filters="sRGB">
<feFlood flood-opacity="0" result="BackgroundImageFix"/>
<feColorMatrix in="SourceAlpha" type="matrix" values="0 0 0 0 0 0 0 0 0 0 0 0 0 0 0 0 0 0 127 0" result="hardAlpha"/>
<feOffset dy="4"/>
<feGaussianBlur stdDeviation="2.75"/>
<feComposite in2="hardAlpha" operator="out"/>
<feColorMatrix type="matrix" values="0 0 0 0 0 0 0 0 0 0 0 0 0 0 0 0 0 0 0.09 0"/>
<feBlend mode="normal" in2="BackgroundImageFix" result="effect1_dropShadow_247_23325"/>
<feBlend mode="normal" in="SourceGraphic" in2="effect1_dropShadow_247_23325" result="shape"/>
</filter>
<filter id="filter2_d_247_23325" x="101" y="423" width="20" height="20" filterUnits="userSpaceOnUse" color-interpolation-filters="sRGB">
<feFlood flood-opacity="0" result="BackgroundImageFix"/>
<feColorMatrix in="SourceAlpha" type="matrix" values="0 0 0 0 0 0 0 0 0 0 0 0 0 0 0 0 0 0 127 0" result="hardAlpha"/>
<feOffset dy="1"/>
<feGaussianBlur stdDeviation="1"/>
<feColorMatrix type="matrix" values="0 0 0 0 0 0 0 0 0 0 0 0 0 0 0 0 0 0 0.05 0"/>
<feBlend mode="normal" in2="BackgroundImageFix" result="effect1_dropShadow_247_23325"/>
<feBlend mode="normal" in="SourceGraphic" in2="effect1_dropShadow_247_23325" result="shape"/>
</filter>
<filter id="filter3_d_247_23325" x="101" y="455" width="20" height="20" filterUnits="userSpaceOnUse" color-interpolation-filters="sRGB">
<feFlood flood-opacity="0" result="BackgroundImageFix"/>
<feColorMatrix in="SourceAlpha" type="matrix" values="0 0 0 0 0 0 0 0 0 0 0 0 0 0 0 0 0 0 127 0" result="hardAlpha"/>
<feOffset dy="1"/>
<feGaussianBlur stdDeviation="1"/>
<feColorMatrix type="matrix" values="0 0 0 0 0 0 0 0 0 0 0 0 0 0 0 0 0 0 0.05 0"/>
<feBlend mode="normal" in2="BackgroundImageFix" result="effect1_dropShadow_247_23325"/>
<feBlend mode="normal" in="SourceGraphic" in2="effect1_dropShadow_247_23325" result="shape"/>
</filter>
<filter id="filter4_d_247_23325" x="101" y="487" width="20" height="20" filterUnits="userSpaceOnUse" color-interpolation-filters="sRGB">
<feFlood flood-opacity="0" result="BackgroundImageFix"/>
<feColorMatrix in="SourceAlpha" type="matrix" values="0 0 0 0 0 0 0 0 0 0 0 0 0 0 0 0 0 0 127 0" result="hardAlpha"/>
<feOffset dy="1"/>
<feGaussianBlur stdDeviation="1"/>
<feColorMatrix type="matrix" values="0 0 0 0 0 0 0 0 0 0 0 0 0 0 0 0 0 0 0.05 0"/>
<feBlend mode="normal" in2="BackgroundImageFix" result="effect1_dropShadow_247_23325"/>
<feBlend mode="normal" in="SourceGraphic" in2="effect1_dropShadow_247_23325" result="shape"/>
</filter>
<filter id="filter5_d_247_23325" x="533" y="416.75" width="25" height="25" filterUnits="userSpaceOnUse" color-interpolation-filters="sRGB">
<feFlood flood-opacity="0" result="BackgroundImageFix"/>
<feColorMatrix in="SourceAlpha" type="matrix" values="0 0 0 0 0 0 0 0 0 0 0 0 0 0 0 0 0 0 127 0" result="hardAlpha"/>
<feOffset dy="1.25"/>
<feGaussianBlur stdDeviation="1.25"/>
<feColorMatrix type="matrix" values="0 0 0 0 0 0 0 0 0 0 0 0 0 0 0 0 0 0 0.05 0"/>
<feBlend mode="normal" in2="BackgroundImageFix" result="effect1_dropShadow_247_23325"/>
<feBlend mode="normal" in="SourceGraphic" in2="effect1_dropShadow_247_23325" result="shape"/>
</filter>
<filter id="filter6_d_247_23325" x="533" y="452.75" width="25" height="25" filterUnits="userSpaceOnUse" color-interpolation-filters="sRGB">
<feFlood flood-opacity="0" result="BackgroundImageFix"/>
<feColorMatrix in="SourceAlpha" type="matrix" values="0 0 0 0 0 0 0 0 0 0 0 0 0 0 0 0 0 0 127 0" result="hardAlpha"/>
<feOffset dy="1.25"/>
<feGaussianBlur stdDeviation="1.25"/>
<feColorMatrix type="matrix" values="0 0 0 0 0 0 0 0 0 0 0 0 0 0 0 0 0 0 0.05 0"/>
<feBlend mode="normal" in2="BackgroundImageFix" result="effect1_dropShadow_247_23325"/>
<feBlend mode="normal" in="SourceGraphic" in2="effect1_dropShadow_247_23325" result="shape"/>
</filter>
<filter id="filter7_d_247_23325" x="533" y="488.75" width="25" height="25" filterUnits="userSpaceOnUse" color-interpolation-filters="sRGB">
<feFlood flood-opacity="0" result="BackgroundImageFix"/>
<feColorMatrix in="SourceAlpha" type="matrix" values="0 0 0 0 0 0 0 0 0 0 0 0 0 0 0 0 0 0 127 0" result="hardAlpha"/>
<feOffset dy="1.25"/>
<feGaussianBlur stdDeviation="1.25"/>
<feColorMatrix type="matrix" values="0 0 0 0 0 0 0 0 0 0 0 0 0 0 0 0 0 0 0.05 0"/>
<feBlend mode="normal" in2="BackgroundImageFix" result="effect1_dropShadow_247_23325"/>
<feBlend mode="normal" in="SourceGraphic" in2="effect1_dropShadow_247_23325" result="shape"/>
</filter>
<filter id="filter8_d_247_23325" x="170" y="214" width="452" height="152" filterUnits="userSpaceOnUse" color-interpolation-filters="sRGB">
<feFlood flood-opacity="0" result="BackgroundImageFix"/>
<feColorMatrix in="SourceAlpha" type="matrix" values="0 0 0 0 0 0 0 0 0 0 0 0 0 0 0 0 0 0 127 0" result="hardAlpha"/>
<feOffset dy="4"/>
<feGaussianBlur stdDeviation="7"/>
<feComposite in2="hardAlpha" operator="out"/>
<feColorMatrix type="matrix" values="0 0 0 0 0 0 0 0 0 0 0 0 0 0 0 0 0 0 0.25 0"/>
<feBlend mode="normal" in2="BackgroundImageFix" result="effect1_dropShadow_247_23325"/>
<feBlend mode="normal" in="SourceGraphic" in2="effect1_dropShadow_247_23325" result="shape"/>
</filter>
<linearGradient id="paint0_linear_247_23325" x1="324" y1="268" x2="85.6846" y2="-117.303" gradientUnits="userSpaceOnUse">
<stop stop-color="#4C29B5"/>
<stop offset="1" stop-color="#6A3FEC" stop-opacity="0.5"/>
</linearGradient>
<linearGradient id="paint1_linear_247_23325" x1="324" y1="268" x2="85.6846" y2="-117.303" gradientUnits="userSpaceOnUse">
<stop stop-color="#4C29B5"/>
<stop offset="1" stop-color="#6A3FEC" stop-opacity="0.5"/>
</linearGradient>
<linearGradient id="paint2_linear_247_23325" x1="324" y1="598" x2="85.6846" y2="212.697" gradientUnits="userSpaceOnUse">
<stop stop-color="#4C29B5"/>
<stop offset="1" stop-color="#6A3FEC" stop-opacity="0.5"/>
</linearGradient>
<linearGradient id="paint3_linear_247_23325" x1="324" y1="268" x2="85.6846" y2="-117.303" gradientUnits="userSpaceOnUse">
<stop stop-color="#4C29B5"/>
<stop offset="1" stop-color="#6A3FEC" stop-opacity="0.5"/>
</linearGradient>
<clipPath id="clip0_247_23325">
<rect width="360" height="261" rx="10" fill="white"/>
</clipPath>
<clipPath id="clip1_247_23325">
<path d="M82 120.5C82 114.977 86.4772 110.5 92 110.5H267C272.523 110.5 277 114.977 277 120.5V205.5C277 211.023 272.523 215.5 267 215.5H92C86.4772 215.5 82 211.023 82 205.5V120.5Z" fill="white"/>
</clipPath>
<clipPath id="clip2_247_23325">
<rect x="82" y="110.5" width="195" height="105" rx="10" fill="white"/>
</clipPath>
<clipPath id="clip3_247_23325">
<rect x="433" width="360" height="261" rx="10" fill="white"/>
</clipPath>
<clipPath id="clip4_247_23325">
<rect y="330" width="360" height="261" rx="10" fill="white"/>
</clipPath>
<clipPath id="clip5_247_23325">
<rect x="103" y="424" width="16" height="16" rx="8" fill="white"/>
</clipPath>
<clipPath id="clip6_247_23325">
<rect x="103" y="456" width="16" height="16" rx="8" fill="white"/>
</clipPath>
<clipPath id="clip7_247_23325">
<rect x="103" y="488" width="16" height="16" rx="8" fill="white"/>
</clipPath>
<clipPath id="clip8_247_23325">
<rect x="433" y="330" width="360" height="261" rx="10" fill="white"/>
</clipPath>
</defs>
</svg>
