<svg width="36" height="32" viewBox="0 0 36 32" fill="none" xmlns="http://www.w3.org/2000/svg">
<path d="M2 29.5H34M16.5858 2.91422L11.4142 8.08579C10.6332 8.86684 9.36684 8.86684 8.58579 8.08579L5.41421 4.91422C4.15428 3.65429 2 4.54662 2 6.32843V21.5C2 22.6046 2.89543 23.5 4 23.5H32C33.1046 23.5 34 22.6046 34 21.5V6.32843C34 4.54662 31.8457 3.65429 30.5858 4.91422L27.4142 8.08579C26.6332 8.86684 25.3668 8.86684 24.5858 8.08579L19.4142 2.91422C18.6332 2.13317 17.3668 2.13317 16.5858 2.91422Z" stroke="#4C29B5" stroke-width="3.5" stroke-linecap="round" stroke-linejoin="round"/>
</svg>
