<svg width="17" height="14" viewBox="0 0 17 14" fill="none" xmlns="http://www.w3.org/2000/svg">
<path d="M16.4824 1.71525C15.8951 1.97446 15.2639 2.14964 14.6015 2.22841C15.2775 1.82508 15.7969 1.18644 16.0414 0.425405C15.4085 0.798904 14.7077 1.0701 13.9617 1.21622C13.3644 0.582851 12.5133 0.187134 11.5713 0.187134C9.76267 0.187134 8.29622 1.64622 8.29622 3.44596C8.29622 3.70137 8.32522 3.95011 8.38108 4.18865C5.65925 4.05273 3.24607 2.75531 1.63085 0.783618C1.34893 1.26493 1.18743 1.82474 1.18743 2.422C1.18743 3.55264 1.76557 4.55013 2.64435 5.13459C2.10756 5.11758 1.60252 4.97102 1.16101 4.72693C1.1607 4.74055 1.1607 4.75415 1.1607 4.76789C1.1607 6.3469 2.28959 7.66401 3.78775 7.96343C3.51296 8.03792 3.22363 8.07779 2.92495 8.07779C2.71392 8.07779 2.50876 8.05729 2.30876 8.01932C2.72553 9.31395 3.93498 10.2562 5.36809 10.2824C4.24727 11.1566 2.83516 11.6776 1.30076 11.6776C1.03642 11.6776 0.775734 11.6621 0.519531 11.632C1.96886 12.5566 3.69032 13.0962 5.53976 13.0962C11.5636 13.0962 14.8577 8.13041 14.8577 3.82384C14.8577 3.68257 14.8545 3.54202 14.8482 3.40222C15.4881 2.94274 16.0434 2.36879 16.4824 1.71525Z" fill="white"/>
</svg>
