<svg width="48" height="48" viewBox="0 0 48 48" fill="none" xmlns="http://www.w3.org/2000/svg">
<path d="M41 42C43.7614 42 46 39.7614 46 37C46 32.3451 42.0965 30.3977 38 29.5835M30 22C34.4183 22 38 18.4183 38 14C38 9.58172 34.4183 6 30 6M7 42.0002H29C31.7614 42.0002 34 39.7617 34 37.0002C34 28.8387 22 29.0002 18 29.0002C14 29.0002 2 28.8387 2 37.0002C2 39.7617 4.23858 42.0002 7 42.0002ZM26 14C26 18.4183 22.4183 22 18 22C13.5817 22 10 18.4183 10 14C10 9.58172 13.5817 6 18 6C22.4183 6 26 9.58172 26 14Z" stroke="#4C29B5" stroke-width="3.5" stroke-linecap="round" stroke-linejoin="round"/>
</svg>
