<svg width="28" height="33" viewBox="0 0 28 33" fill="none" xmlns="http://www.w3.org/2000/svg">
<path d="M16.9154 1.91669H5.2487C4.47515 1.91669 3.73328 2.22398 3.1863 2.77096C2.63932 3.31794 2.33203 4.05981 2.33203 4.83335V28.1667C2.33203 28.9402 2.63932 29.6821 3.1863 30.2291C3.73328 30.7761 4.47515 31.0834 5.2487 31.0834H22.7487C23.5222 31.0834 24.2641 30.7761 24.8111 30.2291C25.3581 29.6821 25.6654 28.9402 25.6654 28.1667V10.6667M16.9154 1.91669L25.6654 10.6667M16.9154 1.91669V10.6667H25.6654M19.832 17.9584H8.16536M19.832 23.7917H8.16536M11.082 12.125H8.16536" stroke="white" stroke-width="3" stroke-linecap="round" stroke-linejoin="round"/>
</svg>
